<?xml version="1.0" standalone="no"?>
<!DOCTYPE svg PUBLIC "-//W3C//DTD SVG 20010904//EN"
 "http://www.w3.org/TR/2001/REC-SVG-20010904/DTD/svg10.dtd">
<svg version="1.0" xmlns="http://www.w3.org/2000/svg"
 width="512.000000pt" height="512.000000pt" viewBox="0 0 512.000000 512.000000"
 preserveAspectRatio="xMidYMid meet">
<metadata>
Created by potrace 1.11, written by Peter Selinger 2001-2013
</metadata>
<g transform="translate(0.000000,512.000000) scale(0.100000,-0.100000)"
fill="#000000" stroke="none">
<path d="M700 4818 c1 -41 4 -45 73 -98 40 -30 145 -126 234 -214 l161 -158
-66 -59 c-262 -231 -485 -600 -595 -984 -137 -478 -153 -1098 -41 -1605 126
-567 425 -1026 862 -1324 226 -153 528 -265 847 -313 169 -25 603 -25 760 0
605 95 1064 375 1374 837 263 393 390 837 408 1420 13 462 -58 904 -201 1238
l-33 78 96 131 c53 72 169 232 259 356 l162 225 0 102 0 101 -26 -20 c-15 -12
-31 -21 -36 -21 -22 0 -120 -73 -198 -147 -47 -44 -98 -92 -115 -107 -42 -37
-116 -111 -145 -147 -14 -17 -44 -49 -67 -71 -24 -23 -43 -47 -43 -55 0 -8
-13 -26 -30 -40 -16 -13 -30 -32 -30 -42 0 -9 -13 -25 -30 -34 -16 -10 -30
-27 -30 -37 0 -10 -8 -21 -18 -24 -19 -7 -52 -56 -52 -79 0 -8 -9 -17 -20 -20
-11 -3 -24 -17 -29 -31 -6 -14 -19 -34 -31 -46 -11 -11 -20 -29 -20 -40 0 -11
-6 -20 -14 -20 -7 0 -20 -10 -29 -22 -8 -13 -18 -20 -22 -16 -4 4 1 19 12 35
26 39 47 82 42 87 -2 2 -24 1 -48 -4 -25 -4 -50 -6 -57 -3 -19 7 -24 51 -6 58
10 4 13 14 8 35 -6 32 -1 36 24 20 12 -8 13 -11 1 -19 -9 -6 -10 -11 -3 -15
12 -7 35 28 25 38 -3 3 1 6 10 6 9 0 17 -7 17 -15 0 -8 7 -15 16 -15 15 0 15
2 1 23 -12 17 -23 21 -53 19 -53 -4 -65 -19 -79 -100 -13 -75 -14 -70 48 -142
28 -32 32 -92 7 -88 -11 2 -33 -16 -59 -49 -22 -29 -41 -56 -41 -59 0 -4 8
-16 18 -27 17 -20 16 -20 -13 -15 -26 5 -33 1 -52 -29 -13 -19 -23 -41 -23
-50 0 -10 -6 -13 -16 -9 -9 3 -27 6 -40 6 -15 0 -24 6 -24 15 0 8 -3 14 -7 14
-5 -1 -18 -1 -31 0 -19 1 -22 5 -17 21 5 14 2 20 -9 20 -9 0 -16 -7 -16 -16 0
-14 -2 -15 -17 -3 -15 13 -15 12 -4 -9 7 -13 17 -20 23 -16 8 5 9 1 5 -10 -6
-16 8 -33 57 -69 18 -13 18 -17 6 -48 -8 -19 -27 -47 -42 -64 -80 -88 -99
-112 -110 -135 -17 -39 -55 -65 -73 -50 -8 7 -15 20 -15 29 0 24 -20 41 -47
41 -25 0 -31 15 -10 23 8 4 4 12 -13 25 -25 21 -46 20 -33 -1 9 -15 10 -19 12
-60 0 -18 9 -42 19 -53 10 -10 27 -35 38 -54 l21 -36 -31 -45 c-100 -144 -191
-258 -200 -249 -6 6 -5 18 2 35 15 33 15 42 0 27 -16 -16 -29 -15 -23 1 6 16
-21 51 -34 43 -16 -10 -22 11 -6 24 17 14 16 57 -2 64 -7 3 -13 19 -13 36 0
16 -5 30 -11 30 -6 0 -9 -6 -6 -14 3 -8 3 -17 0 -20 -15 -15 -20 -109 -6 -113
5 -2 7 -17 5 -34 -6 -44 16 -105 44 -120 13 -7 24 -18 24 -24 0 -7 -22 -43
-48 -81 -27 -38 -64 -96 -82 -129 -18 -33 -50 -87 -72 -119 -21 -33 -39 -69
-40 -80 0 -12 -2 -40 -3 -64 -1 -51 -17 -68 -71 -77 -41 -6 -41 -6 -36 22 3
15 9 31 14 34 5 3 1 78 -11 180 -36 315 -45 476 -31 549 23 122 24 130 6 130
-15 0 -56 54 -56 73 0 12 48 8 53 -5 3 -7 6 6 6 30 1 66 -25 222 -68 397 -21
88 -54 241 -72 340 -25 133 -36 172 -40 150 -20 -91 3 -373 42 -535 12 -47 25
-146 30 -220 13 -206 12 -198 44 -226 27 -23 28 -25 8 -21 -13 3 -23 1 -23 -4
0 -5 4 -9 10 -9 6 0 7 -22 4 -57 -4 -33 -1 -77 6 -102 6 -23 9 -45 7 -47 -2
-2 -20 3 -40 11 -35 14 -57 51 -43 73 9 15 -32 159 -68 237 -46 100 -124 227
-193 317 -31 40 -146 192 -256 337 -233 310 -303 392 -325 384 -11 -5 -14 -2
-10 9 8 20 -7 43 -29 43 -10 1 -17 6 -15 13 1 7 -9 17 -22 24 -14 6 -26 20
-28 32 -2 13 -10 21 -23 21 -14 0 -19 6 -17 18 2 13 -6 22 -27 30 -17 6 -31
19 -31 27 0 21 -41 60 -63 60 -10 0 -22 11 -27 25 -6 15 -17 25 -30 25 -13 0
-20 7 -20 20 0 11 -6 20 -14 20 -7 0 -21 11 -30 25 -9 14 -25 25 -34 25 -10 0
-31 16 -46 35 -16 19 -34 35 -41 35 -7 0 -16 7 -19 16 -4 9 -9 14 -12 11 -3
-2 -31 20 -62 50 -79 76 -88 84 -164 136 -38 26 -74 47 -82 47 -8 0 -22 8 -32
18 -10 9 -21 17 -25 17 -4 0 -16 9 -26 21 -10 11 -25 24 -33 27 -8 4 -28 16
-45 26 -16 10 -35 16 -42 14 -6 -3 -17 5 -23 17 -6 12 -14 19 -17 16 -3 -2
-17 6 -31 20 -15 13 -30 24 -34 24 -5 0 -8 -19 -8 -42z m630 -449 c0 -6 -4 -7
-10 -4 -5 3 -10 11 -10 16 0 6 5 7 10 4 6 -3 10 -11 10 -16z m537 -766 c149
-164 321 -352 383 -418 106 -113 247 -291 302 -380 13 -22 41 -80 62 -130 21
-49 55 -122 77 -161 26 -48 42 -93 50 -145 21 -127 16 -808 -7 -885 -3 -12 -1
-25 5 -28 16 -10 13 -46 -4 -52 -8 -4 -13 -9 -10 -13 2 -4 7 -33 10 -65 6 -55
6 -57 -14 -47 -24 13 -26 11 -40 -59 -14 -66 -41 -92 -70 -66 -10 9 -22 16
-28 16 -19 0 -193 119 -245 168 -89 82 -152 171 -374 528 -237 382 -293 468
-300 461 -6 -6 -4 -9 165 -352 131 -264 143 -284 204 -345 36 -35 63 -68 60
-73 -3 -5 12 -28 34 -50 53 -56 103 -122 103 -136 0 -6 11 -17 25 -23 14 -6
25 -15 25 -20 0 -17 -45 4 -80 37 -57 53 -62 55 -400 161 -373 117 -525 142
-207 34 152 -51 345 -119 468 -166 125 -47 562 -316 574 -354 3 -8 15 -20 27
-25 16 -7 24 -20 26 -42 4 -37 -13 -45 -23 -12 -4 11 -9 18 -11 16 -3 -3 4
-40 15 -83 11 -45 21 -128 23 -193 l5 -114 -191 6 c-204 6 -311 23 -462 73
-394 132 -695 455 -840 901 l-36 111 -46 6 c-26 3 -84 8 -130 12 l-84 6 84 48
c46 26 97 54 113 62 17 8 29 19 28 24 -75 448 -63 924 33 1303 58 228 146 421
263 578 63 86 149 183 160 183 4 0 129 -134 278 -297z m98 197 c3 -5 1 -10 -4
-10 -6 0 -11 5 -11 10 0 6 2 10 4 10 3 0 8 -4 11 -10z m1775 -710 c0 -5 -4
-10 -10 -10 -5 0 -10 5 -10 10 0 6 5 10 10 10 6 0 10 -4 10 -10z m248 -112
c32 -179 37 -254 37 -563 0 -259 -4 -342 -18 -435 -54 -341 -143 -592 -288
-811 -84 -127 -265 -306 -382 -377 -134 -83 -315 -154 -453 -176 l-42 -7 -7
155 c-4 85 -4 203 0 263 l8 108 -24 -20 c-13 -11 -28 -24 -32 -30 -5 -6 -7 -3
-4 7 3 9 9 34 12 55 4 21 17 67 30 103 13 36 28 113 34 175 20 189 37 246 122
420 43 88 91 193 107 233 15 40 48 101 73 134 50 70 291 315 519 530 85 79
184 179 220 221 36 42 68 77 71 77 3 0 11 -28 17 -62z m-2108 -1049 c0 -6 -4
-7 -10 -4 -5 3 -10 11 -10 16 0 6 5 7 10 4 6 -3 10 -11 10 -16z"/>
<path d="M2480 2110 c0 -5 5 -10 10 -10 6 0 10 5 10 10 0 6 -4 10 -10 10 -5 0
-10 -4 -10 -10z"/>
<path d="M2406 2073 c-10 -10 -7 -43 5 -43 6 0 17 7 25 15 13 12 12 15 -4 24
-11 6 -22 7 -26 4z"/>
<path d="M2427 1933 c-12 -11 -8 -23 8 -23 8 0 15 7 15 15 0 16 -12 20 -23 8z"/>
<path d="M2336 1921 c-4 -7 -5 -15 -2 -18 9 -9 19 4 14 18 -4 11 -6 11 -12 0z"/>
<path d="M2413 1836 c21 -16 22 -36 3 -36 -8 0 -17 -4 -21 -10 -10 -17 6 -59
26 -65 11 -4 17 -10 14 -15 -3 -5 0 -12 6 -16 9 -5 10 6 5 44 -4 29 -3 52 1
52 5 0 8 12 7 27 -1 23 -6 28 -30 30 -26 2 -27 0 -11 -11z"/>
<path d="M2405 1632 c-14 -33 -14 -36 4 -53 27 -26 47 -15 55 29 9 55 8 57
-19 58 -20 2 -29 -5 -40 -34z"/>
<path d="M2545 1380 c-3 -5 -1 -10 4 -10 6 0 11 5 11 10 0 6 -2 10 -4 10 -3 0
-8 -4 -11 -10z"/>
<path d="M2480 1355 c0 -21 28 -31 43 -16 9 9 8 14 -3 21 -22 14 -40 12 -40
-5z"/>
<path d="M2586 1247 c3 -10 9 -15 12 -12 3 3 0 11 -7 18 -10 9 -11 8 -5 -6z"/>
<path d="M2380 4794 c-326 -29 -554 -83 -783 -186 -96 -43 -267 -138 -266
-147 0 -3 35 -33 77 -66 42 -33 141 -124 220 -203 l144 -143 112 55 c210 104
383 140 671 140 144 0 225 -4 290 -16 363 -68 637 -235 842 -514 l46 -63 81
73 c45 40 87 71 94 69 6 -3 12 2 12 10 0 14 118 127 244 234 l50 41 -74 82
c-41 45 -117 118 -169 162 -299 249 -647 399 -1056 453 -116 16 -443 27 -535
19z"/>
<path d="M4147 3944 c-10 -10 12 -44 28 -44 12 0 12 5 3 25 -11 25 -19 30 -31
19z"/>
<path d="M4140 3763 c0 -6 -9 -13 -21 -16 -21 -6 -22 -28 -3 -34 13 -4 40 44
31 54 -4 3 -7 2 -7 -4z"/>
<path d="M3620 3339 c0 -22 3 -29 9 -21 4 8 11 13 15 13 3 -1 14 -1 24 0 13 0
14 2 2 6 -8 3 -23 12 -32 21 -17 14 -18 13 -18 -19z"/>
<path d="M3396 2847 c3 -10 9 -15 12 -12 3 3 0 11 -7 18 -10 9 -11 8 -5 -6z"/>
<path d="M3082 2791 c-9 -25 -8 -29 4 -24 8 3 14 16 14 29 0 32 -6 30 -18 -5z"/>
<path d="M3001 2544 c0 -11 3 -14 6 -6 3 7 2 16 -1 19 -3 4 -6 -2 -5 -13z"/>
<path d="M2982 2464 c-14 -68 -32 -235 -31 -279 l1 -30 12 28 c7 15 15 24 19
21 4 -4 8 6 8 22 1 17 3 22 6 12 2 -10 13 -18 24 -18 14 0 19 7 19 30 0 17 5
30 10 30 18 0 11 67 -10 93 -11 14 -20 33 -20 44 0 10 -6 38 -14 62 l-13 44
-11 -59z"/>
<path d="M2890 1930 c0 -5 4 -10 9 -10 6 0 13 5 16 10 3 6 -1 10 -9 10 -9 0
-16 -4 -16 -10z"/>
</g>
</svg>
