<svg height="9" viewBox="0 0 7 9" xmlns="http://www.w3.org/2000/svg">
    <path d="M0.919309 1.17569C0.903492 1.1973 0.897002 1.22435 0.901292 1.25078C0.905581 1.27721 0.920292 1.30082 0.94213 1.31631L5.42878 4.5L0.94213 7.68369C0.920269 7.6992 0.905551 7.72284 0.901278 7.7493C0.897006 7.77576 0.903536 7.80283 0.919405 7.82444L1.09184 8.0592C1.12416 8.1032 1.18578 8.11315 1.2303 8.08155L5.99725 4.69894L5.99789 4.69847C6.06099 4.65295 6.1 4.57914 6.1 4.5C6.1 4.42072 6.06084 4.34666 5.99671 4.3011L5.99666 4.30107L1.22972 0.918446C1.18514 0.886818 1.12344 0.896832 1.09115 0.940933L0.919309 1.17569Z"
          fill="#333131" stroke="#333131" stroke-width="0.2" stroke-linejoin="round"/>
</svg>