<svg height="7" viewBox="0 0 12 7" xmlns="http://www.w3.org/2000/svg">
    <path d="M10.7324 0.926492C10.6942 0.891228 10.6353 0.891162 10.597 0.926339L6 5.14708L1.403 0.926339C1.36464 0.891117 1.30567 0.891234 1.26745 0.926608L0.932077 1.23699C0.911778 1.25578 0.900167 1.28213 0.900002 1.30978C0.899837 1.33744 0.911133 1.36393 0.931206 1.38296L5.75373 5.95419C5.80726 6.03874 5.8958 6.1 6 6.1C6.10437 6.1 6.19298 6.03857 6.2465 5.95291L11.0688 1.3819C11.0889 1.36285 11.1002 1.33633 11.1 1.30864C11.0998 1.28095 11.0882 1.25459 11.0678 1.23581L10.7324 0.926492Z"
          fill="#53735E" stroke="#53735E" stroke-width="0.2" stroke-linejoin="round"/>
</svg>