<svg height="280" viewBox="0 0 407 285" fill="none" xmlns="http://www.w3.org/2000/svg">
    <path d="M401.763 185.111C380.942 180.892 359.715 179.012 338.476 179.505C350.686 148.627 353.202 111.396 345.842 68.5261C345.683 67.6093 345.337 66.7352 344.825 65.9579C344.314 65.1807 343.647 64.5171 342.868 64.0084C342.088 63.4996 341.212 63.1567 340.295 63.0009C339.377 62.8451 338.437 62.8798 337.533 63.1028C314.613 69.5488 292.782 79.3734 272.76 92.2526C259.735 56.7547 237.438 25.3892 208.184 1.41391C206.871 0.400647 205.232 -0.0968046 203.577 0.015617C201.923 0.128038 200.366 0.842541 199.203 2.02402C169.119 32.6041 149.007 64.0248 139.158 95.5743C117.82 81.0778 94.2868 70.1091 69.4603 63.0893C68.5565 62.8663 67.6164 62.8316 66.6986 62.9874C65.7808 63.1432 64.9049 63.4861 64.1254 63.9948C63.3459 64.5035 62.6796 65.1672 62.1678 65.9444C61.6561 66.7216 61.31 67.5958 61.1509 68.5125C53.7911 111.383 56.3348 148.606 68.5175 179.492C47.2786 178.998 26.051 180.879 5.23009 185.098C4.27901 185.319 3.38733 185.744 2.61669 186.343C1.84605 186.942 1.21485 187.702 0.766734 188.569C0.316369 189.433 0.0577913 190.384 0.00862686 191.358C-0.0405376 192.331 0.120868 193.303 0.481841 194.209C29.9617 267.978 87.4223 284.973 134.111 284.973C157.702 284.823 181.12 280.943 203.497 273.476C225.874 280.954 249.294 284.843 272.889 285C319.571 285 377.038 267.998 406.518 194.236C406.879 193.331 407.041 192.358 406.991 191.385C406.942 190.411 406.684 189.46 406.233 188.596C405.786 187.725 405.154 186.963 404.382 186.361C403.611 185.76 402.717 185.333 401.763 185.111ZM323.437 180.237C298.599 181.764 274.353 188.46 252.254 199.896C251.068 200.186 249.984 200.795 249.121 201.659C235.39 209.582 223.415 220.212 213.922 232.903C214.219 220.384 213.06 207.872 210.47 195.619C218.61 161.202 239.536 131.896 272.875 108.454C291.593 95.5502 312.08 85.4192 333.7 78.3759C339.493 118.25 335.993 152.443 323.437 180.237ZM204.507 15.9684C216.453 26.5369 248.198 57.7746 261.113 100.347C235.347 118.462 215.345 143.608 203.497 172.78C192.507 145.498 174.274 121.731 150.764 104.041C158.965 74.6272 176.947 45.0436 204.507 15.9684ZM73.32 78.3353C96.8279 85.9809 118.973 97.3071 138.927 111.891C167.581 131.949 188.033 161.663 196.53 195.578C193.934 207.83 192.773 220.342 193.071 232.863C165.592 195.985 121.915 183.281 83.5491 180.203C71.0001 152.443 67.5 118.243 73.32 78.3556V78.3353ZM124.771 271.456C73.9847 268.703 37.5385 243.58 16.3139 196.778C47.0622 191.545 157.954 179.098 194.522 262.182C171.981 269.271 148.383 272.415 124.771 271.476V271.456ZM282.223 271.456C258.61 272.387 235.014 269.242 212.471 262.162C249.032 179.105 359.917 191.551 390.713 196.778C369.455 243.58 333.008 268.703 282.223 271.476V271.456Z"
          fill="#219653" fill-opacity="0.1"/>
    <path d="M209.391 50.2998H197.495V62.196H209.391V50.2998Z" fill="#219653"
          fill-opacity="0.1"/>
    <path d="M209.391 74.0923H197.495V85.9885H209.391V74.0923Z" fill="#219653"
          fill-opacity="0.1"/>
    <path d="M209.391 97.8848H197.495V109.781H209.391V97.8848Z" fill="#219653"
          fill-opacity="0.1"/>
    <path d="M96.3779 97.8849C96.6727 113.734 101.119 129.229 109.273 142.823L119.171 136.22C112.35 124.569 108.6 111.376 108.274 97.8789L96.3779 97.8849Z"
          fill="#219653" fill-opacity="0.1"/>
    <path d="M310.509 97.8848H298.613C298.309 111.383 294.558 124.58 287.716 136.22L297.614 142.823C305.768 129.229 310.214 113.734 310.509 97.8848Z"
          fill="#219653" fill-opacity="0.1"/>
</svg>