<svg width="19" height="20" viewBox="0 0 19 20" fill="none" xmlns="http://www.w3.org/2000/svg">
    <path d="M10.7599 3.04284L10.7378 3.14037C10.7458 3.14219 10.7536 3.14292 10.76 3.14315L12.0829 3.56747C13.3508 4.13925 14.6194 5.54853 14.6074 7.40867V7.40931V10.5183C14.6074 12.5705 15.3404 14.4822 16.7337 16.0913L14.2193 16.5175L14.2193 16.5175L14.2191 16.5175L14.2184 16.5176L14.2184 16.5176L14.2156 16.5181L14.2047 16.5198L14.1627 16.5265L14.0083 16.5509C13.878 16.5715 13.6982 16.5997 13.5002 16.6301C13.1081 16.6904 12.6461 16.7595 12.3548 16.7962V16.7959L12.3424 16.7975C12.0868 16.8293 11.8385 16.8571 11.5955 16.8811V16.8809L11.5857 16.8818C11.3621 16.9038 11.1437 16.9217 10.9273 16.9368L10.806 16.9447L10.8056 16.9448C10.7869 16.946 10.769 16.9471 10.7518 16.9482C10.5958 16.9583 10.4902 16.9652 10.2495 16.9733L10.1232 16.9777L10.1034 16.9785L10.0989 16.9788L10.0963 16.9791C9.68737 16.9918 9.28341 16.9918 8.87476 16.9793L8.86943 16.9788L8.86572 16.9785L8.84564 16.9777L8.71944 16.9733C8.47408 16.9649 8.37332 16.9583 8.21416 16.9479C8.20062 16.947 8.18667 16.9461 8.17217 16.9451L8.17193 16.9451C8.12793 16.9423 8.08434 16.9396 8.04046 16.9365C7.83052 16.9217 7.61835 16.9045 7.40177 16.8832L7.40049 16.8831L7.38872 16.8821L7.37782 16.8811C7.37761 16.8811 7.37739 16.8811 7.37718 16.8811C7.13502 16.8573 6.88782 16.8295 6.63347 16.7978L6.63357 16.797H6.62416C6.33208 16.7606 5.86589 16.6911 5.47053 16.6303C5.27169 16.5997 5.09116 16.5714 4.96033 16.5508L4.80532 16.5262L4.76316 16.5195L4.7522 16.5177L4.74941 16.5173L4.74936 16.5173L4.74871 16.5172L4.74854 16.5171L4.7485 16.5171L2.2316 16.0904C3.57093 14.5253 4.24887 12.6534 4.24887 10.518V7.41138C4.26064 5.58509 5.58014 4.16418 6.89144 3.56867L6.894 3.56773L6.91206 3.56119L6.98203 3.53611C7.04298 3.51442 7.13152 3.48327 7.24163 3.44553C7.46034 3.37057 7.76396 3.26966 8.10539 3.16521C8.10939 3.16497 8.11237 3.16467 8.11355 3.16446L8.11355 3.16449L8.11583 3.16398C8.96906 2.97562 9.87708 2.96709 10.7402 3.14088L10.7599 3.04284ZM10.7599 3.04284C10.0137 2.8926 9.23463 2.87649 8.48469 2.99303L10.7736 3.0425C10.7736 3.0425 10.7645 3.04388 10.7599 3.04284ZM1.01372 16.0783L1.01368 16.0783L1.01367 16.0783L1.00601 16.0867L1.00043 16.0967L1.08758 16.1457L1.00041 16.0967L1.00039 16.0967L1.00034 16.0968L1.0002 16.0971L0.99978 16.0978L0.998428 16.1003L0.993828 16.1088C0.989995 16.1161 0.984695 16.1263 0.978526 16.1389C0.966257 16.164 0.950194 16.1991 0.935342 16.2389C0.92063 16.2783 0.906199 16.3247 0.898415 16.3717C0.890868 16.4174 0.888019 16.4726 0.904751 16.525C0.955804 16.6849 1.0933 16.8016 1.25893 16.8298L1.259 16.8298L4.5967 17.396L4.59672 17.396C5.2001 17.4983 5.75742 17.5827 6.28817 17.6527C6.92552 18.8394 8.14971 19.6 9.48794 19.6C10.8265 19.6 12.0511 18.839 12.6881 17.6517C13.2167 17.582 13.7712 17.4979 14.3711 17.396C14.3711 17.396 14.3711 17.396 14.3711 17.396L17.7083 16.8299C17.8744 16.802 18.0112 16.6846 18.0626 16.5253C18.1141 16.3658 18.0701 16.1915 17.9497 16.0742C16.3293 14.4917 15.5108 12.6235 15.5108 10.518V7.41123C15.526 4.99199 13.87 3.39105 12.452 2.75437C12.0712 2.58334 11.6797 2.4493 11.2823 2.34751V2.22724C11.2823 1.21794 10.447 0.4 9.42394 0.4C8.40084 0.4 7.56558 1.21794 7.56558 2.22724V2.37905C7.2094 2.47743 6.8589 2.60294 6.51791 2.75764C4.95289 3.46628 3.35992 5.17642 3.34553 7.40832V7.40897V10.518H3.34551L3.34555 10.5198C3.37236 11.9848 2.79256 13.3731 2.20039 14.4001C1.90484 14.9127 1.60754 15.333 1.38425 15.625C1.27264 15.7709 1.17961 15.8847 1.11466 15.9618C1.08219 16.0003 1.05675 16.0297 1.03952 16.0493L1.01999 16.0713L1.01513 16.0767L1.01397 16.078L1.01372 16.0783ZM10.2528 17.0732C10.2317 17.0739 10.2134 17.0746 10.1977 17.0751L11.5955 16.9813C11.3708 17.0034 11.1513 17.0214 10.934 17.0366C10.8932 17.0394 10.8524 17.0421 10.812 17.0446C10.7933 17.0458 10.7755 17.0469 10.7582 17.048C10.6019 17.0582 10.4951 17.0651 10.2528 17.0732ZM10.1825 17.0127C10.1905 17.0258 10.1955 17.0468 10.197 17.0687C10.194 17.0443 10.1849 17.0224 10.1752 17.0063C10.1779 17.0085 10.1804 17.0106 10.1825 17.0127ZM8.46967 2.19008C8.48963 1.69262 8.90858 1.2909 9.42394 1.2909C9.93433 1.2909 10.3502 1.68493 10.3775 2.17576C9.74339 2.09657 9.10188 2.10041 8.46967 2.19008ZM9.48829 18.7088C8.70969 18.7088 7.97607 18.3637 7.46126 17.7862C8.16072 17.8506 8.82257 17.8831 9.48442 17.8831C10.149 17.8831 10.8134 17.8506 11.5159 17.7854C11.0008 18.3634 10.2669 18.7088 9.48829 18.7088Z"
          fill="#116708" stroke="#116708" stroke-width="0.2"/>
</svg>
