<svg width="21" height="19" viewBox="0 0 21 19" fill="none" xmlns="http://www.w3.org/2000/svg">
<g id="Vector">
<mask id="path-1-outside-1" maskUnits="userSpaceOnUse" x="0" y="0" width="21" height="19" fill="black">
<rect fill="white" width="21" height="19"/>
<path d="M19.9686 6.06923C19.6912 3.13164 17.5306 1.00035 14.8266 1.00035C13.0251 1.00035 11.3757 1.93325 10.4475 3.42842C9.5278 1.91391 7.94595 1 6.17336 1C3.4697 1 1.30868 3.13129 1.0317 6.06888C1.00978 6.19863 0.919889 6.88152 1.19321 7.99516C1.58712 9.60145 2.49699 11.0625 3.82378 12.2194L10.4431 18L17.1761 12.2198C18.5029 11.0625 19.4128 9.6018 19.8067 7.99516C20.08 6.88187 19.9902 6.19899 19.9686 6.06923ZM19.0953 7.83411C18.7357 9.30115 17.9022 10.6377 16.6872 11.6969L10.4475 17.0541L4.31489 11.6983C3.09772 10.637 2.26459 9.3008 1.90466 7.83376C1.64595 6.77989 1.75229 6.18457 1.75265 6.1807L1.75813 6.14519C1.99565 3.57154 3.85229 1.70328 6.17336 1.70328C7.88602 1.70328 9.39369 2.716 10.1092 4.34585L10.4457 5.11348L10.7822 4.34585C11.4864 2.74097 13.0737 1.70363 14.8269 1.70363C17.1476 1.70363 19.0046 3.57189 19.2469 6.17894C19.2476 6.18457 19.354 6.78025 19.0953 7.83411Z"/>
</mask>
<path d="M19.9686 6.06923C19.6912 3.13164 17.5306 1.00035 14.8266 1.00035C13.0251 1.00035 11.3757 1.93325 10.4475 3.42842C9.5278 1.91391 7.94595 1 6.17336 1C3.4697 1 1.30868 3.13129 1.0317 6.06888C1.00978 6.19863 0.919889 6.88152 1.19321 7.99516C1.58712 9.60145 2.49699 11.0625 3.82378 12.2194L10.4431 18L17.1761 12.2198C18.5029 11.0625 19.4128 9.6018 19.8067 7.99516C20.08 6.88187 19.9902 6.19899 19.9686 6.06923ZM19.0953 7.83411C18.7357 9.30115 17.9022 10.6377 16.6872 11.6969L10.4475 17.0541L4.31489 11.6983C3.09772 10.637 2.26459 9.3008 1.90466 7.83376C1.64595 6.77989 1.75229 6.18457 1.75265 6.1807L1.75813 6.14519C1.99565 3.57154 3.85229 1.70328 6.17336 1.70328C7.88602 1.70328 9.39369 2.716 10.1092 4.34585L10.4457 5.11348L10.7822 4.34585C11.4864 2.74097 13.0737 1.70363 14.8269 1.70363C17.1476 1.70363 19.0046 3.57189 19.2469 6.17894C19.2476 6.18457 19.354 6.78025 19.0953 7.83411Z" fill="#116708"/>
<path d="M19.9686 6.06923C19.6912 3.13164 17.5306 1.00035 14.8266 1.00035C13.0251 1.00035 11.3757 1.93325 10.4475 3.42842C9.5278 1.91391 7.94595 1 6.17336 1C3.4697 1 1.30868 3.13129 1.0317 6.06888C1.00978 6.19863 0.919889 6.88152 1.19321 7.99516C1.58712 9.60145 2.49699 11.0625 3.82378 12.2194L10.4431 18L17.1761 12.2198C18.5029 11.0625 19.4128 9.6018 19.8067 7.99516C20.08 6.88187 19.9902 6.19899 19.9686 6.06923ZM19.0953 7.83411C18.7357 9.30115 17.9022 10.6377 16.6872 11.6969L10.4475 17.0541L4.31489 11.6983C3.09772 10.637 2.26459 9.3008 1.90466 7.83376C1.64595 6.77989 1.75229 6.18457 1.75265 6.1807L1.75813 6.14519C1.99565 3.57154 3.85229 1.70328 6.17336 1.70328C7.88602 1.70328 9.39369 2.716 10.1092 4.34585L10.4457 5.11348L10.7822 4.34585C11.4864 2.74097 13.0737 1.70363 14.8269 1.70363C17.1476 1.70363 19.0046 3.57189 19.2469 6.17894C19.2476 6.18457 19.354 6.78025 19.0953 7.83411Z" stroke="#116708" stroke-width="0.4" mask="url(#path-1-outside-1)"/>
</g>
</svg>
