<svg width="22" height="20" viewBox="0 0 22 20" xmlns="http://www.w3.org/2000/svg">
    <path d="M10.9986 6L10.9966 10.8098C10.9966 10.9925 11.0691 11.167 11.198 11.2959L14.6389 14.7361L15.611 13.7639L12.3716 10.5251L12.3736 6H10.9986Z"
          fill="#116708"/>
    <path d="M12.375 0.5C7.53576 0.5 3.53067 4.09394 2.85988 8.75001H0L3.4375 12.1875L6.87499 8.75001H4.24919C4.90692 4.85445 8.29508 1.87501 12.375 1.87501C16.9243 1.87501 20.625 5.57569 20.625 10.125C20.625 14.6744 16.9243 18.375 12.375 18.375C9.81771 18.375 7.44638 17.2176 5.86926 15.1994L4.78565 16.0453C6.62523 18.3992 9.39134 19.75 12.375 19.75C17.6823 19.75 22 15.4316 22 10.125C22 4.81841 17.6823 0.50004 12.375 0.5Z"
          fill="#116708"/>
</svg>