<svg width="15" height="19" viewBox="0 0 15 19" xmlns="http://www.w3.org/2000/svg">
    <path d="M14.7768 18.2201C13.8923 16.3828 12.3003 14.9395 10.3706 14.2118V13.0499C11.3193 12.9977 13.1084 12.7565 14.1577 11.683C14.2904 11.5463 14.3426 11.3493 14.2944 11.1644C14.2461 10.9795 14.1014 10.8347 13.9165 10.7825C13.9004 10.7785 12.5174 10.3041 12.7948 7.47376C12.9154 6.26767 12.8953 5.18218 12.7385 4.24947C12.5576 3.18007 12.1958 2.33982 11.6691 1.75286C11.0982 1.12167 10.3545 0.800042 9.45794 0.800042C9.42176 0.800042 9.38558 0.800042 9.35341 0.800042C9.01169 0.502539 8.26391 0 7.11812 0C6.58342 0 6.0246 0.108548 5.45371 0.329666L5.42959 0.337706C4.97931 0.506559 4.14309 0.824164 3.43551 1.76492C2.61135 2.85844 2.21736 4.47863 2.2656 6.57723C2.31385 8.67986 1.9681 9.70906 1.6706 10.2036C1.42536 10.6096 1.19218 10.69 1.13188 10.7061C0.92684 10.69 0.762007 10.7945 0.657479 10.9714C0.54893 11.1523 0.589134 11.3815 0.709743 11.5584C0.757987 11.6308 1.03941 12.0087 1.71884 12.3745C2.49476 12.7926 3.46366 13.0298 4.60945 13.0781V14.1837C2.70382 14.9073 1.11981 16.3627 0.223285 18.2241C0.142879 18.3929 0.15494 18.5899 0.251427 18.7467C0.351935 18.9035 0.524809 19 0.709743 19H14.2904C14.4753 19 14.6522 18.9035 14.7487 18.7467C14.8452 18.5859 14.8572 18.3889 14.7768 18.2201ZM1.63441 17.9105C2.5028 16.5758 3.80538 15.5667 5.313 15.0802C5.53814 15.0078 5.69091 14.7988 5.69091 14.5656V12.5434C5.69091 12.3986 5.63463 12.2579 5.5301 12.1574C5.42557 12.0569 5.28888 11.9966 5.14415 12.0006C3.58025 12.0167 2.63547 11.6589 2.12087 11.3534C2.15706 11.3172 2.19726 11.281 2.23746 11.2408C3.02946 10.4166 3.40335 8.84067 3.35109 6.55311C3.24656 2.32776 5.04364 1.64431 5.8075 1.35485L5.83162 1.3468C6.2819 1.17795 6.71207 1.0895 7.11008 1.0895C8.14732 1.0895 8.678 1.66039 8.72223 1.71265C8.83479 1.85336 9.00767 1.92171 9.18858 1.90563C9.27703 1.89759 9.36547 1.89357 9.4499 1.89357C10.0328 1.89357 10.4952 2.08654 10.857 2.48857C11.6209 3.33284 11.9345 5.11384 11.7093 7.37325C11.4842 9.65277 12.1958 10.7945 12.8109 11.3493C11.9827 11.8077 10.8047 11.9805 9.91626 11.9805C9.86801 11.9805 9.83987 11.9805 9.83585 11.9805C9.69112 11.9765 9.54639 12.0328 9.44186 12.1333C9.33733 12.2338 9.27703 12.3745 9.27703 12.5233V14.6018C9.27703 14.839 9.4298 15.044 9.65494 15.1164C11.1827 15.6109 12.4893 16.6079 13.3536 17.9185H1.63441V17.9105Z"
          fill="#116708"/>
</svg>