<svg width="26" height="58" viewBox="0 0 26 58" fill="none" xmlns="http://www.w3.org/2000/svg">
    <path d="M1.23824 3.93422L22.4328 29L1.23826 54.0658C0.723734 54.6743 0.711325 55.5617 1.20863 56.1843C1.87092 57.0135 3.12885 57.0219 3.8021 56.2016L25.0935 30.2587C25.0939 30.2583 25.0942 30.2578 25.0946 30.2574C25.3686 29.927 25.5 29.452 25.5 29C25.5 28.5489 25.3691 28.0728 25.0907 27.7413C25.0899 27.7403 25.089 27.7393 25.0882 27.7383L3.80207 1.79853C3.12886 0.978146 1.8709 0.986473 1.20861 1.8157C0.711314 2.43834 0.723726 3.32573 1.23824 3.93422Z" fill="#A4CC70" stroke="#A4CC70" stroke-linejoin="round"/>
</svg>