<svg width="26" height="58" viewBox="0 0 26 58" fill="none" xmlns="http://www.w3.org/2000/svg">
    <path d="M24.7618 54.0658L3.56721 29L24.7617 3.93424C25.2763 3.32573 25.2887 2.43832 24.7914 1.81566C24.1291 0.986452 22.8712 0.978088 22.1979 1.79842L0.906516 27.7413C0.906148 27.7417 0.905781 27.7422 0.905415 27.7426C0.631384 28.073 0.500001 28.548 0.500001 29C0.500001 29.4511 0.630929 29.9272 0.909306 30.2587C0.910132 30.2597 0.91096 30.2607 0.911789 30.2617L22.1979 56.2015C22.8711 57.0219 24.1291 57.0135 24.7914 56.1843C25.2887 55.5617 25.2763 54.6743 24.7618 54.0658Z" fill="#A4CC70" stroke="#A4CC70" stroke-linejoin="round"/>
</svg>