<svg width="30" height="30" viewBox="0 0 30 30" fill="none" xmlns="http://www.w3.org/2000/svg">
<path d="M22.8196 14.4728C22.8203 12.4924 21.9866 10.5531 20.5319 9.15217C20.231 8.86233 19.4844 8.25951 19.4844 7.09674V5.78079C20.4392 5.44216 21.125 4.53036 21.125 3.46094C21.125 2.10398 20.021 1 18.6641 1H12.1016C10.7446 1 9.64063 2.10398 9.64063 3.46094C9.64063 4.53036 10.3265 5.44216 11.2813 5.78079V7.13305C11.2813 8.26782 10.6101 8.82355 10.1624 9.27128C8.76798 10.6657 8 12.5197 8 14.4917C8 14.9014 8 24.2865 8 24.8984C8 27.16 9.83996 29 12.1016 29H18.6707C20.9542 29 22.8157 27.1638 22.8203 24.905L22.8196 14.4728ZM12.1016 2.64063H18.6641C19.1164 2.64063 19.4844 3.00862 19.4844 3.46094C19.4844 3.91326 19.1164 4.28126 18.6641 4.28126H12.1016C11.6492 4.28126 11.2813 3.91326 11.2813 3.46094C11.2813 3.00862 11.6492 2.64063 12.1016 2.64063ZM11.3224 10.4314C11.7803 9.97353 12.9219 9.00391 12.9219 7.133V5.92188H17.8438V7.09679C17.8438 8.20537 18.3017 9.28211 19.1002 10.0511L19.3939 10.334C20.5289 11.4271 21.1905 12.9355 21.1899 14.4726L21.1902 17.4475C19.6436 17.6293 17.4805 17.1079 16.2095 16.2605L15.4663 15.7651C13.7293 14.607 11.6938 14.0959 9.64468 14.2859C9.69559 12.8293 10.2866 11.4673 11.3224 10.4314ZM18.6707 27.3594H12.1016C10.7446 27.3594 9.64063 26.2554 9.64063 24.8985V15.9466C11.0694 15.7845 13.3911 16.3534 14.5562 17.1302L15.2994 17.6256C17.0095 18.7657 19.1122 19.2956 21.1903 19.0972L21.1907 24.9035C21.1878 26.2577 20.0514 27.3594 18.6707 27.3594Z" fill="#75A9B4"/>
</svg>
