<svg width="30" height="30" viewBox="0 0 30 30" fill="none" xmlns="http://www.w3.org/2000/svg">
<mask id="path-1-outside-1" maskUnits="userSpaceOnUse" x="1" y="1" width="28" height="28" fill="black">
<rect fill="white" x="1" y="1" width="28" height="28"/>
<path d="M27.7117 12.0446C27.6871 12.0026 27.6514 11.9667 27.6081 11.9391C27.0146 11.5614 26.4004 11.1274 25.7821 10.6488C25.513 10.4405 25.2212 10.2038 24.9008 9.93274C25.1961 9.66507 25.3859 9.49155 25.4989 9.37622C25.5254 9.3623 25.5577 9.3406 25.5783 9.32153C25.819 9.1053 25.8737 8.77174 25.7316 8.38235C25.6153 8.0634 25.3732 7.72756 25.0495 7.43757C24.35 6.80903 23.45 6.58143 22.999 6.92375C22.9389 6.93687 22.8836 6.96444 22.8389 7.00486L22.3158 7.47528C20.457 5.45579 19.2924 3.51329 19.2608 2.35815C19.2568 2.20948 19.1347 2.08488 18.9706 2.06265C18.6678 2.02109 18.3531 2 18.0354 2C15.9471 2 13.7767 2.87364 12.0806 4.39699C9.89931 6.3562 8.93751 9.03189 9.63119 11.2135C9.65916 11.3016 9.72921 11.3736 9.82235 11.4104C9.9149 11.4469 10.0221 11.4445 10.1129 11.4034C10.725 11.1266 11.4394 10.9864 12.2355 10.9864C13.7052 10.9864 15.3426 11.4721 16.8866 12.3506L2.55619 25.2219L2.32032 25.433C2.26498 25.4824 2.23497 25.548 2.22815 25.6167C1.83172 26.2745 1.95876 27.1049 2.5559 27.6406C2.91531 27.9637 3.39368 28.1413 3.90245 28.1413C4.21967 28.1413 4.52822 28.0716 4.80443 27.938C4.88296 27.9315 4.95798 27.9008 5.01536 27.8494L5.2224 27.6619C5.23155 27.6553 5.24071 27.6481 5.2486 27.6409C5.25309 27.6368 5.25747 27.6328 5.26195 27.6283C5.56388 27.3565 13.8488 19.8976 19.7396 14.5886C20.9122 15.8242 21.7494 17.2304 22.1025 18.5825C22.1389 18.7208 22.2765 18.819 22.4352 18.819C22.437 18.819 22.4386 18.819 22.4403 18.819C23.8183 18.8011 25.246 18.2183 26.3572 17.2197C28.0592 15.6903 28.616 13.5621 27.7117 12.0446ZM23.244 7.5081C23.3457 7.47257 23.4173 7.41211 23.4353 7.39592C23.4543 7.37903 23.4974 7.36914 23.5537 7.36914C23.7804 7.36914 24.1815 7.52437 24.5672 7.8715C24.8133 8.09175 25.0014 8.34778 25.0838 8.57337C25.1425 8.73429 25.1311 8.83676 25.1031 8.87911C25.1013 8.88033 25.1001 8.88147 25.0984 8.88243C25.0861 8.89197 25.0744 8.90238 25.0631 8.91341C25.0207 8.95349 24.7887 9.16419 24.4066 9.50992C24.3279 9.44211 24.2483 9.37517 24.1698 9.30464C23.8521 9.01929 23.5377 8.71959 23.2283 8.41507C23.141 8.32897 23.0513 8.24366 22.9652 8.15694C22.9619 8.15318 22.9579 8.14985 22.955 8.14644C22.8883 8.07906 22.8249 8.01186 22.7596 7.9443L23.244 7.5081ZM4.77023 27.2025C4.77023 27.2025 4.76994 27.2031 4.76955 27.2031C4.76634 27.2058 4.76341 27.2083 4.76069 27.2106L4.64251 27.3169C4.61864 27.3247 4.59535 27.3355 4.57353 27.3484C4.10373 27.6259 3.43908 27.566 3.03836 27.207C2.6316 26.842 2.56476 26.2637 2.87946 25.8319C2.89417 25.8119 2.90586 25.7897 2.91433 25.767L17.4636 12.6996C17.548 12.7539 17.6326 12.8079 17.715 12.8636C17.7673 12.8992 17.8214 12.9343 17.8734 12.9706C18.05 13.0943 18.2225 13.2199 18.3881 13.3492C18.6129 13.5247 18.8353 13.7112 19.0496 13.9037C19.1313 13.977 19.2106 14.0512 19.289 14.1257C13.2868 19.5358 4.77023 27.2025 4.77023 27.2025ZM25.8742 16.786C24.9604 17.6075 23.8168 18.1114 22.6978 18.1938C22.259 16.731 21.3137 15.2272 20.0138 13.9329C20.0131 13.9323 20.0131 13.9314 20.0124 13.9308L19.9437 13.8604C19.9071 13.8221 19.8697 13.7838 19.8293 13.7455C19.732 13.6532 19.6333 13.5607 19.5316 13.4698C19.3056 13.267 19.0712 13.0706 18.8365 12.887C18.4564 12.5901 18.0472 12.3068 17.621 12.0449C17.6208 12.0449 17.6205 12.0449 17.6201 12.0446C15.864 10.9669 13.952 10.3736 12.2357 10.3736C11.4927 10.3736 10.8082 10.4833 10.1944 10.7001C9.76798 8.79528 10.6707 6.53094 12.5635 4.83101C14.1325 3.42167 16.127 2.61366 18.0354 2.61366C18.2262 2.61366 18.4146 2.62189 18.5996 2.63886C18.7805 4.00182 20.0399 6.0236 22.0318 8.12771C22.0321 8.12771 22.0321 8.12771 22.0321 8.12797C22.0837 8.18293 22.1389 8.23771 22.1915 8.29266C22.2788 8.38314 22.3645 8.47353 22.4549 8.56471C22.5762 8.68765 22.7016 8.80753 22.8256 8.92855C22.9053 9.00625 22.983 9.08527 23.0636 9.16192C23.2697 9.35819 23.4778 9.55105 23.6868 9.73866C23.7812 9.82345 23.8761 9.9043 23.9712 9.98559C23.9962 10.007 24.0213 10.0298 24.0465 10.0509L24.1759 10.1617C24.6092 10.5335 24.9887 10.845 25.3361 11.1136C25.947 11.5866 26.5552 12.018 27.1452 12.3963C27.8441 13.6558 27.3176 15.4884 25.8742 16.786Z"/>
</mask>
<path d="M27.7117 12.0446C27.6871 12.0026 27.6514 11.9667 27.6081 11.9391C27.0146 11.5614 26.4004 11.1274 25.7821 10.6488C25.513 10.4405 25.2212 10.2038 24.9008 9.93274C25.1961 9.66507 25.3859 9.49155 25.4989 9.37622C25.5254 9.3623 25.5577 9.3406 25.5783 9.32153C25.819 9.1053 25.8737 8.77174 25.7316 8.38235C25.6153 8.0634 25.3732 7.72756 25.0495 7.43757C24.35 6.80903 23.45 6.58143 22.999 6.92375C22.9389 6.93687 22.8836 6.96444 22.8389 7.00486L22.3158 7.47528C20.457 5.45579 19.2924 3.51329 19.2608 2.35815C19.2568 2.20948 19.1347 2.08488 18.9706 2.06265C18.6678 2.02109 18.3531 2 18.0354 2C15.9471 2 13.7767 2.87364 12.0806 4.39699C9.89931 6.3562 8.93751 9.03189 9.63119 11.2135C9.65916 11.3016 9.72921 11.3736 9.82235 11.4104C9.9149 11.4469 10.0221 11.4445 10.1129 11.4034C10.725 11.1266 11.4394 10.9864 12.2355 10.9864C13.7052 10.9864 15.3426 11.4721 16.8866 12.3506L2.55619 25.2219L2.32032 25.433C2.26498 25.4824 2.23497 25.548 2.22815 25.6167C1.83172 26.2745 1.95876 27.1049 2.5559 27.6406C2.91531 27.9637 3.39368 28.1413 3.90245 28.1413C4.21967 28.1413 4.52822 28.0716 4.80443 27.938C4.88296 27.9315 4.95798 27.9008 5.01536 27.8494L5.2224 27.6619C5.23155 27.6553 5.24071 27.6481 5.2486 27.6409C5.25309 27.6368 5.25747 27.6328 5.26195 27.6283C5.56388 27.3565 13.8488 19.8976 19.7396 14.5886C20.9122 15.8242 21.7494 17.2304 22.1025 18.5825C22.1389 18.7208 22.2765 18.819 22.4352 18.819C22.437 18.819 22.4386 18.819 22.4403 18.819C23.8183 18.8011 25.246 18.2183 26.3572 17.2197C28.0592 15.6903 28.616 13.5621 27.7117 12.0446ZM23.244 7.5081C23.3457 7.47257 23.4173 7.41211 23.4353 7.39592C23.4543 7.37903 23.4974 7.36914 23.5537 7.36914C23.7804 7.36914 24.1815 7.52437 24.5672 7.8715C24.8133 8.09175 25.0014 8.34778 25.0838 8.57337C25.1425 8.73429 25.1311 8.83676 25.1031 8.87911C25.1013 8.88033 25.1001 8.88147 25.0984 8.88243C25.0861 8.89197 25.0744 8.90238 25.0631 8.91341C25.0207 8.95349 24.7887 9.16419 24.4066 9.50992C24.3279 9.44211 24.2483 9.37517 24.1698 9.30464C23.8521 9.01929 23.5377 8.71959 23.2283 8.41507C23.141 8.32897 23.0513 8.24366 22.9652 8.15694C22.9619 8.15318 22.9579 8.14985 22.955 8.14644C22.8883 8.07906 22.8249 8.01186 22.7596 7.9443L23.244 7.5081ZM4.77023 27.2025C4.77023 27.2025 4.76994 27.2031 4.76955 27.2031C4.76634 27.2058 4.76341 27.2083 4.76069 27.2106L4.64251 27.3169C4.61864 27.3247 4.59535 27.3355 4.57353 27.3484C4.10373 27.6259 3.43908 27.566 3.03836 27.207C2.6316 26.842 2.56476 26.2637 2.87946 25.8319C2.89417 25.8119 2.90586 25.7897 2.91433 25.767L17.4636 12.6996C17.548 12.7539 17.6326 12.8079 17.715 12.8636C17.7673 12.8992 17.8214 12.9343 17.8734 12.9706C18.05 13.0943 18.2225 13.2199 18.3881 13.3492C18.6129 13.5247 18.8353 13.7112 19.0496 13.9037C19.1313 13.977 19.2106 14.0512 19.289 14.1257C13.2868 19.5358 4.77023 27.2025 4.77023 27.2025ZM25.8742 16.786C24.9604 17.6075 23.8168 18.1114 22.6978 18.1938C22.259 16.731 21.3137 15.2272 20.0138 13.9329C20.0131 13.9323 20.0131 13.9314 20.0124 13.9308L19.9437 13.8604C19.9071 13.8221 19.8697 13.7838 19.8293 13.7455C19.732 13.6532 19.6333 13.5607 19.5316 13.4698C19.3056 13.267 19.0712 13.0706 18.8365 12.887C18.4564 12.5901 18.0472 12.3068 17.621 12.0449C17.6208 12.0449 17.6205 12.0449 17.6201 12.0446C15.864 10.9669 13.952 10.3736 12.2357 10.3736C11.4927 10.3736 10.8082 10.4833 10.1944 10.7001C9.76798 8.79528 10.6707 6.53094 12.5635 4.83101C14.1325 3.42167 16.127 2.61366 18.0354 2.61366C18.2262 2.61366 18.4146 2.62189 18.5996 2.63886C18.7805 4.00182 20.0399 6.0236 22.0318 8.12771C22.0321 8.12771 22.0321 8.12771 22.0321 8.12797C22.0837 8.18293 22.1389 8.23771 22.1915 8.29266C22.2788 8.38314 22.3645 8.47353 22.4549 8.56471C22.5762 8.68765 22.7016 8.80753 22.8256 8.92855C22.9053 9.00625 22.983 9.08527 23.0636 9.16192C23.2697 9.35819 23.4778 9.55105 23.6868 9.73866C23.7812 9.82345 23.8761 9.9043 23.9712 9.98559C23.9962 10.007 24.0213 10.0298 24.0465 10.0509L24.1759 10.1617C24.6092 10.5335 24.9887 10.845 25.3361 11.1136C25.947 11.5866 26.5552 12.018 27.1452 12.3963C27.8441 13.6558 27.3176 15.4884 25.8742 16.786Z" fill="#A18A56"/>
<path d="M27.7117 12.0446C27.6871 12.0026 27.6514 11.9667 27.6081 11.9391C27.0146 11.5614 26.4004 11.1274 25.7821 10.6488C25.513 10.4405 25.2212 10.2038 24.9008 9.93274C25.1961 9.66507 25.3859 9.49155 25.4989 9.37622C25.5254 9.3623 25.5577 9.3406 25.5783 9.32153C25.819 9.1053 25.8737 8.77174 25.7316 8.38235C25.6153 8.0634 25.3732 7.72756 25.0495 7.43757C24.35 6.80903 23.45 6.58143 22.999 6.92375C22.9389 6.93687 22.8836 6.96444 22.8389 7.00486L22.3158 7.47528C20.457 5.45579 19.2924 3.51329 19.2608 2.35815C19.2568 2.20948 19.1347 2.08488 18.9706 2.06265C18.6678 2.02109 18.3531 2 18.0354 2C15.9471 2 13.7767 2.87364 12.0806 4.39699C9.89931 6.3562 8.93751 9.03189 9.63119 11.2135C9.65916 11.3016 9.72921 11.3736 9.82235 11.4104C9.9149 11.4469 10.0221 11.4445 10.1129 11.4034C10.725 11.1266 11.4394 10.9864 12.2355 10.9864C13.7052 10.9864 15.3426 11.4721 16.8866 12.3506L2.55619 25.2219L2.32032 25.433C2.26498 25.4824 2.23497 25.548 2.22815 25.6167C1.83172 26.2745 1.95876 27.1049 2.5559 27.6406C2.91531 27.9637 3.39368 28.1413 3.90245 28.1413C4.21967 28.1413 4.52822 28.0716 4.80443 27.938C4.88296 27.9315 4.95798 27.9008 5.01536 27.8494L5.2224 27.6619C5.23155 27.6553 5.24071 27.6481 5.2486 27.6409C5.25309 27.6368 5.25747 27.6328 5.26195 27.6283C5.56388 27.3565 13.8488 19.8976 19.7396 14.5886C20.9122 15.8242 21.7494 17.2304 22.1025 18.5825C22.1389 18.7208 22.2765 18.819 22.4352 18.819C22.437 18.819 22.4386 18.819 22.4403 18.819C23.8183 18.8011 25.246 18.2183 26.3572 17.2197C28.0592 15.6903 28.616 13.5621 27.7117 12.0446ZM23.244 7.5081C23.3457 7.47257 23.4173 7.41211 23.4353 7.39592C23.4543 7.37903 23.4974 7.36914 23.5537 7.36914C23.7804 7.36914 24.1815 7.52437 24.5672 7.8715C24.8133 8.09175 25.0014 8.34778 25.0838 8.57337C25.1425 8.73429 25.1311 8.83676 25.1031 8.87911C25.1013 8.88033 25.1001 8.88147 25.0984 8.88243C25.0861 8.89197 25.0744 8.90238 25.0631 8.91341C25.0207 8.95349 24.7887 9.16419 24.4066 9.50992C24.3279 9.44211 24.2483 9.37517 24.1698 9.30464C23.8521 9.01929 23.5377 8.71959 23.2283 8.41507C23.141 8.32897 23.0513 8.24366 22.9652 8.15694C22.9619 8.15318 22.9579 8.14985 22.955 8.14644C22.8883 8.07906 22.8249 8.01186 22.7596 7.9443L23.244 7.5081ZM4.77023 27.2025C4.77023 27.2025 4.76994 27.2031 4.76955 27.2031C4.76634 27.2058 4.76341 27.2083 4.76069 27.2106L4.64251 27.3169C4.61864 27.3247 4.59535 27.3355 4.57353 27.3484C4.10373 27.6259 3.43908 27.566 3.03836 27.207C2.6316 26.842 2.56476 26.2637 2.87946 25.8319C2.89417 25.8119 2.90586 25.7897 2.91433 25.767L17.4636 12.6996C17.548 12.7539 17.6326 12.8079 17.715 12.8636C17.7673 12.8992 17.8214 12.9343 17.8734 12.9706C18.05 13.0943 18.2225 13.2199 18.3881 13.3492C18.6129 13.5247 18.8353 13.7112 19.0496 13.9037C19.1313 13.977 19.2106 14.0512 19.289 14.1257C13.2868 19.5358 4.77023 27.2025 4.77023 27.2025ZM25.8742 16.786C24.9604 17.6075 23.8168 18.1114 22.6978 18.1938C22.259 16.731 21.3137 15.2272 20.0138 13.9329C20.0131 13.9323 20.0131 13.9314 20.0124 13.9308L19.9437 13.8604C19.9071 13.8221 19.8697 13.7838 19.8293 13.7455C19.732 13.6532 19.6333 13.5607 19.5316 13.4698C19.3056 13.267 19.0712 13.0706 18.8365 12.887C18.4564 12.5901 18.0472 12.3068 17.621 12.0449C17.6208 12.0449 17.6205 12.0449 17.6201 12.0446C15.864 10.9669 13.952 10.3736 12.2357 10.3736C11.4927 10.3736 10.8082 10.4833 10.1944 10.7001C9.76798 8.79528 10.6707 6.53094 12.5635 4.83101C14.1325 3.42167 16.127 2.61366 18.0354 2.61366C18.2262 2.61366 18.4146 2.62189 18.5996 2.63886C18.7805 4.00182 20.0399 6.0236 22.0318 8.12771C22.0321 8.12771 22.0321 8.12771 22.0321 8.12797C22.0837 8.18293 22.1389 8.23771 22.1915 8.29266C22.2788 8.38314 22.3645 8.47353 22.4549 8.56471C22.5762 8.68765 22.7016 8.80753 22.8256 8.92855C22.9053 9.00625 22.983 9.08527 23.0636 9.16192C23.2697 9.35819 23.4778 9.55105 23.6868 9.73866C23.7812 9.82345 23.8761 9.9043 23.9712 9.98559C23.9962 10.007 24.0213 10.0298 24.0465 10.0509L24.1759 10.1617C24.6092 10.5335 24.9887 10.845 25.3361 11.1136C25.947 11.5866 26.5552 12.018 27.1452 12.3963C27.8441 13.6558 27.3176 15.4884 25.8742 16.786Z" stroke="#A18A56" stroke-width="0.8" mask="url(#path-1-outside-1)"/>
</svg>
