<svg width="29" height="29" viewBox="0 0 29 29" fill="none" xmlns="http://www.w3.org/2000/svg">
<path d="M15 27C9.86935 27 6 23.5342 6 18.9375C6 15.9712 6.97999 14.2829 8.01854 12.4958C8.4331 11.7824 8.86156 11.0442 9.23728 10.196C9.55297 9.48413 9.81809 8.77443 10.0715 8.09914C11.0544 5.47702 11.9831 3 15 3C18.03 3 18.9045 5.3467 19.8296 7.8318C20.0705 8.47781 20.3269 9.16775 20.6374 9.87819C20.9912 10.6905 21.4152 11.4807 21.8254 12.2454C22.8948 14.2398 24 16.3023 24 18.9375C24 23.5342 20.1306 27 15 27ZM15 4.49998C13.1111 4.49998 12.4922 5.91504 11.4763 8.62573C11.2133 9.32739 10.9365 10.0642 10.6084 10.804C10.1997 11.7268 9.74998 12.501 9.31491 13.2495C8.34153 14.9268 7.49998 16.3748 7.49998 18.9375C7.49998 22.6787 10.7241 25.5 15 25.5C19.2759 25.5 22.5 22.6787 22.5 18.9375C22.5 16.6794 21.5302 14.8696 20.5034 12.9544C20.0793 12.1633 19.6406 11.3459 19.2627 10.4788C18.9404 9.74048 18.6738 9.02565 18.4241 8.35548C17.4543 5.7517 16.9036 4.49998 15 4.49998Z" fill="#16CC49"/>
<path d="M15.5 22C13.0185 22 11 19.9815 11 17.5C11 15.0185 13.0185 13 15.5 13C17.9815 13 20 15.0185 20 17.5C20 19.9815 17.9815 22 15.5 22ZM15.5 14.5C13.8454 14.5 12.5 15.8455 12.5 17.5C12.5 19.1546 13.8454 20.5 15.5 20.5C17.1545 20.5 18.5 19.1546 18.5 17.5C18.5 15.8455 17.1545 14.5 15.5 14.5Z" fill="#16CC49"/>
</svg>
