<svg width="24" height="24" viewBox="0 0 24 24" fill="none" xmlns="http://www.w3.org/2000/svg">
<g clip-path="url(#clip0)">
<path d="M21.3718 0.763886C21.3071 0.474199 21.0674 0.256371 20.7729 0.219527C17.8709 -0.143192 15.1901 -0.0577855 12.8049 0.473355C9.76761 1.14962 7.16384 2.55606 5.06558 4.654C1.79337 7.92948 1.79337 13.2591 5.0659 16.5349C5.38156 16.8504 5.71826 17.1373 6.07241 17.3952V23.2961C6.07241 23.6844 6.38722 23.9992 6.77553 23.9992C7.16384 23.9992 7.47866 23.6844 7.47866 23.2961V18.2222C8.57023 18.7273 9.76822 18.9939 11.0076 18.9939C13.2532 18.9939 15.3625 18.1205 16.9466 16.5348C19.4232 14.0584 18.9103 10.6462 18.7415 8.73132C18.4838 5.80787 18.2612 3.28309 21.0616 1.51145C21.3124 1.35273 21.4366 1.05362 21.3718 0.763886ZM6.06012 5.64817C8.53658 3.17218 11.7546 1.77442 15.664 1.46832C13.9872 2.28521 12.367 3.47654 10.9523 4.96984C8.1785 7.89775 6.50403 11.6326 6.14572 15.624C3.34344 12.9138 3.30026 8.41079 6.06012 5.64817ZM17.3406 8.85484C17.5614 11.3583 17.7698 13.723 15.9519 15.5407C14.6332 16.8607 12.8773 17.5877 11.0075 17.5877C9.75148 17.5877 8.54656 17.2591 7.49056 16.6437C7.6348 12.6327 9.21289 8.85062 11.9731 5.93692C13.2414 4.59821 14.7269 3.49267 16.2693 2.73981C17.0212 2.37273 17.7799 2.09251 18.5246 1.90417C17.9719 2.61193 17.5974 3.42146 17.3931 4.34523C17.0714 5.80042 17.2083 7.3532 17.3406 8.85484Z" fill="#105F1D"/>
</g>
<defs>
<clipPath id="clip0">
<rect width="24" height="24" fill="white"/>
</clipPath>
</defs>
</svg>
