<svg width="30" height="30" viewBox="0 0 30 30" fill="none" xmlns="http://www.w3.org/2000/svg">
<mask id="path-1-outside-1" maskUnits="userSpaceOnUse" x="2" y="0" width="26" height="30" fill="black">
<rect fill="white" x="2" width="26" height="30"/>
<path d="M26.9991 10.7536C27.0365 8.85941 25.9656 7.15576 24.3065 6.41919C24.0645 4.80292 22.8107 3.53955 21.2525 3.3255C21.2385 3.16443 21.2091 3.004 21.1645 2.84549C20.8898 1.87073 20.0624 1.13672 19.1069 1.01901C18.4962 0.943604 17.8938 1.10361 17.4032 1.46121C16.9673 1.1615 16.4602 1 15.9404 1C14.6019 1 13.4895 2.02731 13.2958 3.3631C13.2481 3.37314 13.202 3.38724 13.1554 3.39899C13.1114 3.28854 13.0659 3.1796 13.0143 3.07364C12.3304 1.66693 11.1225 0.849182 10.0031 1.03696C9.26842 1.16086 8.6598 1.67953 8.30264 2.46161C7.6566 2.15271 6.99739 2.10016 6.40173 2.31805C5.76658 2.55069 5.2731 3.04736 4.97476 3.7551C4.57915 4.6929 4.57874 5.89859 4.96118 7.04553C4.44571 7.41339 4.06038 7.95364 3.83523 8.63126C3.45649 9.76901 3.58294 11.1418 4.1817 12.3991C4.24729 12.5363 4.31884 12.6726 4.39698 12.8063C3.83482 13.1861 3.41372 13.7495 3.18816 14.4367C2.82957 15.5272 2.9883 16.8124 3.62345 17.9612C3.91522 18.4891 4.30157 18.9672 4.75146 19.3603C4.60115 20.0139 4.71486 20.7324 5.08106 21.3826C5.59654 22.2963 6.52345 22.912 7.50012 23.0109C9.03854 26.0125 10.9473 27.3015 13.8847 28.5952L13.9174 28.6099C14.3305 28.8789 14.8013 29 15.2672 29C15.544 29 15.8169 28.9556 16.0745 28.8797C16.0786 28.8782 16.0829 28.8789 16.087 28.8774C16.0891 28.8765 16.0903 28.875 16.0922 28.874C16.3114 28.8073 16.5201 28.7193 16.7055 28.6069C17.5942 28.068 17.9542 27.1472 17.6448 26.2045C16.7571 23.4986 16.8293 21.4664 17.8596 20.1656C19.643 17.9151 23.7803 18.4682 23.8211 18.4754L24.3024 18.5434L24.3505 18.0414C24.3571 17.9753 24.4953 16.408 23.615 15.3433C23.564 15.2816 23.5104 15.2226 23.4544 15.1666C23.703 15.1094 23.9494 15.0276 24.191 14.921C25.8608 14.1876 26.9635 12.5523 26.9991 10.7536ZM8.20806 22.3166L8.07688 22.0491L7.78799 22.0511C7.78387 22.0511 7.77956 22.0511 7.77585 22.0511C7.03852 22.0511 6.28144 21.5862 5.88954 20.8904C5.60394 20.3837 5.54554 19.8307 5.72895 19.3729L5.87124 19.0182L5.57248 18.7922C5.11231 18.4438 4.71897 17.989 4.43543 17.4759C3.93475 16.5697 3.80275 15.5759 4.07437 14.7501C4.27772 14.1323 4.68545 13.677 5.25378 13.4329L5.80853 13.1949L5.45137 12.6944C5.28421 12.4596 5.13904 12.2148 5.02102 11.9672C4.54029 10.9574 4.42741 9.82904 4.72041 8.94913C4.9143 8.3653 5.2692 7.93143 5.74581 7.69495L6.14656 7.49564L5.97569 7.06903L5.95492 7.02289C5.54349 6.01309 5.49702 4.93942 5.83238 4.1456C5.96582 3.82901 6.22757 3.41351 6.71303 3.23599C7.18019 3.06488 7.73884 3.18344 8.28887 3.56775L8.82922 3.94629L9.00153 3.29303C9.19522 2.56052 9.61467 2.0882 10.1532 1.99783C10.8549 1.87372 11.6865 2.5022 12.1777 3.51199C12.2169 3.59317 12.2535 3.67584 12.2873 3.76065C12.2764 3.76685 12.2675 3.77518 12.2568 3.78159C12.1608 3.84076 12.0677 3.90506 11.9782 3.97406C11.9244 4.01508 11.8738 4.05865 11.8228 4.10309C11.7886 4.13278 11.7553 4.16333 11.7226 4.19388C11.5343 4.36948 11.3673 4.56516 11.2234 4.77856C11.2127 4.79459 11.2028 4.81082 11.1922 4.82684C11.1093 4.95416 11.0353 5.0864 10.9693 5.22418C10.9528 5.25772 10.936 5.29126 10.9205 5.32523C10.892 5.39059 10.8658 5.45618 10.8412 5.52325C10.8149 5.59332 10.7924 5.66425 10.7708 5.73624C10.753 5.79626 10.7353 5.85544 10.7209 5.91675C10.695 6.02142 10.6748 6.12802 10.659 6.2359C10.6534 6.27542 10.6483 6.3143 10.6436 6.35425C10.6282 6.48755 10.6179 6.62213 10.6179 6.75928C10.6179 6.84836 10.6216 6.93723 10.6282 7.0278C8.85369 7.35934 7.5287 8.96109 7.5287 10.8858C7.5287 11.4423 7.64426 11.9939 7.86633 12.5013C7.36771 13.0554 7.08766 13.7845 7.08766 14.554C7.08766 15.7039 7.72342 16.7468 8.70051 17.2488C8.69825 17.509 8.70195 17.7624 8.71038 18.011C8.71326 18.0922 8.71922 18.171 8.72312 18.2513C8.73094 18.4167 8.7404 18.5816 8.75356 18.7425C8.76096 18.8345 8.77124 18.9245 8.78008 19.0148C8.79468 19.1603 8.81051 19.3049 8.82984 19.4464C8.84197 19.5388 8.85595 19.6307 8.87014 19.7217C8.89111 19.858 8.91414 19.9926 8.93943 20.1259C8.95629 20.2158 8.97398 20.3053 8.99269 20.3944C9.02086 20.5271 9.0517 20.6591 9.08398 20.7894C9.10475 20.8736 9.12531 20.9575 9.14731 21.0408C9.18432 21.1776 9.22462 21.3121 9.26616 21.4459C9.28877 21.5193 9.31016 21.5937 9.33421 21.6667C9.38706 21.8278 9.44504 21.987 9.50508 22.1455C9.52153 22.1886 9.53592 22.2335 9.55278 22.2766C9.63092 22.477 9.71481 22.6761 9.80405 22.8731C9.82934 22.929 9.85751 22.9844 9.88362 23.0399C9.94962 23.1809 10.0167 23.3215 10.0884 23.4616C10.1267 23.5366 10.168 23.6116 10.2083 23.6868C10.2724 23.807 10.337 23.9271 10.4053 24.0463C10.4515 24.1275 10.4998 24.2086 10.5476 24.2894C10.6146 24.4028 10.6828 24.5161 10.7536 24.6295C10.8056 24.7132 10.8589 24.7968 10.9127 24.8805C10.9853 24.9929 11.0597 25.1052 11.136 25.218C11.1922 25.3018 11.2489 25.3853 11.3073 25.469C11.3875 25.5837 11.4704 25.6995 11.5536 25.8153C11.6131 25.8976 11.671 25.9798 11.7325 26.0625C11.8234 26.1855 11.9184 26.3101 12.0134 26.4346C12.0714 26.5109 12.1275 26.5863 12.1871 26.6632C12.1923 26.67 12.1974 26.6768 12.2025 26.6837C10.483 25.6884 9.26759 24.4782 8.20806 22.3166ZM21.7503 14.1946L21.6257 14.1731L21.1725 14.282L21.1228 15.3555L21.5901 15.3813C22.1665 15.4119 22.5952 15.606 22.9009 15.9733C23.2723 16.4193 23.3845 17.0348 23.415 17.4584C22.127 17.3712 18.8526 17.3842 17.1386 19.544C15.8857 21.1224 15.7581 23.4684 16.758 26.5173C16.9794 27.193 16.524 27.5894 16.2326 27.7659C16.2121 27.7787 16.1886 27.7868 16.1676 27.7986C15.2518 25.4579 14.6802 23.3755 14.3722 21.5281C14.3701 21.5164 14.3693 21.5052 14.3671 21.4941C14.1236 20.0204 14.0445 18.6959 14.0903 17.5094C14.7458 16.3484 16.6724 16.3016 16.692 16.3012C16.9504 16.2967 17.1569 16.0764 17.1532 15.8079C17.1495 15.5413 16.9412 15.3283 16.6856 15.3283C16.6835 15.3283 16.6819 15.3283 16.6798 15.3283C16.6035 15.3292 15.2687 15.3595 14.2098 16.0493C14.3389 15.0861 14.554 14.2329 14.8202 13.4752C14.8466 13.442 14.8704 13.4059 14.8881 13.3647C14.9154 13.3026 14.928 13.2372 14.9288 13.1731C15.2646 12.2955 15.6686 11.5592 16.0891 10.9448C18.1882 10.4911 19.7721 11.1734 19.8072 11.1885C19.8687 11.2167 19.9323 11.2293 19.9941 11.2293C20.1745 11.2293 20.3462 11.1204 20.4235 10.9386C20.5273 10.6925 20.4191 10.4054 20.1827 10.2975C20.1177 10.2678 18.826 9.69531 16.9687 9.83588C17.8757 8.85278 18.6724 8.40717 18.7909 8.34457C19.4711 8.00598 20.465 8.44327 20.7913 8.6413C20.8657 8.68701 20.9472 8.70837 21.0282 8.70837C21.1884 8.70837 21.3448 8.62271 21.4318 8.46912C21.563 8.23755 21.4894 7.93976 21.2661 7.80325C21.2126 7.77014 20.1601 7.13782 19.082 7.26471C19.1741 6.87036 19.3787 6.5119 19.4832 6.36792C19.6401 6.15472 19.6006 5.84988 19.3952 5.68689C19.1906 5.5239 18.896 5.56384 18.7393 5.77789C18.7097 5.8172 18.0955 6.66357 18.0969 7.63791C17.4157 8.07135 15.6559 9.38513 14.4244 12.0253C14.358 12.1674 14.2939 12.3201 14.2301 12.4735C12.953 11.5662 13.1632 9.9523 13.1749 9.87411C13.2148 9.60944 13.041 9.36078 12.7859 9.31848C12.5311 9.27383 12.2906 9.45712 12.2498 9.72223C12.1141 10.6051 12.3089 12.4243 13.8861 13.4015C13.5378 14.4659 13.2738 15.7364 13.1922 17.236C13.1829 17.2832 13.1809 17.3289 13.1848 17.3755C13.136 18.4267 13.1829 19.5927 13.3458 20.8695C12.7522 20.5301 12.4805 20.0334 12.4633 19.9998C12.3411 19.7638 12.0592 19.6734 11.8318 19.7984C11.6032 19.9234 11.5148 20.2177 11.6357 20.4555C11.6603 20.5049 12.2208 21.5811 13.5162 21.997C13.8308 23.791 14.3837 25.7965 15.2452 28.0242C14.9494 28.0199 14.6576 27.9434 14.4086 27.7804L14.409 27.7791C14.3586 27.7454 14.3165 27.7129 14.2752 27.6798C14.2242 27.6367 14.1726 27.5944 14.1277 27.5422C14.1255 27.5397 14.1226 27.5373 14.1203 27.5348L13.9236 27.3023C10.9919 23.7968 9.52441 21.2325 9.6412 16.9442L9.65107 16.5896L9.32887 16.4719C8.54753 16.1843 8.02218 15.414 8.02218 14.5548C8.02218 13.9434 8.28352 13.3701 8.73855 12.9819L9.04574 12.7202L8.84629 12.3626C8.59585 11.9127 8.46323 11.4024 8.46323 10.8873C8.46323 9.30161 9.65909 8.00812 11.1854 7.94168L11.7541 7.9169L11.6211 7.34183C11.5752 7.14444 11.5524 6.94833 11.5524 6.76077C11.5524 6.61145 11.5682 6.46597 11.5931 6.32285C11.5991 6.28632 11.6089 6.2515 11.6163 6.21582C11.6408 6.10452 11.6712 5.99493 11.7095 5.88962C11.7198 5.86035 11.7307 5.83173 11.7424 5.80289C11.7934 5.67792 11.8514 5.55637 11.9207 5.4425C11.9235 5.43823 11.9254 5.43332 11.9281 5.42883C12.079 5.18381 12.2714 4.96933 12.4929 4.79117C12.5233 4.76682 12.5556 4.74545 12.5868 4.7226C12.6619 4.66812 12.7396 4.61899 12.82 4.5737C12.8706 4.5455 12.9212 4.51837 12.974 4.49402C13.2203 4.37866 13.4862 4.29898 13.7685 4.27719L14.2011 4.24301V3.79077L14.2003 3.75275C14.2161 2.76923 14.9901 1.97348 15.9404 1.97348C16.3638 1.97348 16.7758 2.14096 17.1001 2.44495L17.4285 2.75278L17.7431 2.42978C18.0735 2.09033 18.5273 1.92776 18.9969 1.98587C19.5848 2.05786 20.0951 2.51352 20.2656 3.11957C20.3223 3.31952 20.3392 3.52289 20.3161 3.72369L20.2678 4.26608H20.7946C22.165 4.26608 23.3115 5.37906 23.4057 6.79987L23.4273 7.11923L23.718 7.2254C25.152 7.74771 26.0939 9.15784 26.0627 10.7344C26.0345 12.1498 25.1565 13.4412 23.8266 14.0248C23.1571 14.3177 22.4778 14.373 21.7503 14.1946Z"/>
</mask>
<path d="M26.9991 10.7536C27.0365 8.85941 25.9656 7.15576 24.3065 6.41919C24.0645 4.80292 22.8107 3.53955 21.2525 3.3255C21.2385 3.16443 21.2091 3.004 21.1645 2.84549C20.8898 1.87073 20.0624 1.13672 19.1069 1.01901C18.4962 0.943604 17.8938 1.10361 17.4032 1.46121C16.9673 1.1615 16.4602 1 15.9404 1C14.6019 1 13.4895 2.02731 13.2958 3.3631C13.2481 3.37314 13.202 3.38724 13.1554 3.39899C13.1114 3.28854 13.0659 3.1796 13.0143 3.07364C12.3304 1.66693 11.1225 0.849182 10.0031 1.03696C9.26842 1.16086 8.6598 1.67953 8.30264 2.46161C7.6566 2.15271 6.99739 2.10016 6.40173 2.31805C5.76658 2.55069 5.2731 3.04736 4.97476 3.7551C4.57915 4.6929 4.57874 5.89859 4.96118 7.04553C4.44571 7.41339 4.06038 7.95364 3.83523 8.63126C3.45649 9.76901 3.58294 11.1418 4.1817 12.3991C4.24729 12.5363 4.31884 12.6726 4.39698 12.8063C3.83482 13.1861 3.41372 13.7495 3.18816 14.4367C2.82957 15.5272 2.9883 16.8124 3.62345 17.9612C3.91522 18.4891 4.30157 18.9672 4.75146 19.3603C4.60115 20.0139 4.71486 20.7324 5.08106 21.3826C5.59654 22.2963 6.52345 22.912 7.50012 23.0109C9.03854 26.0125 10.9473 27.3015 13.8847 28.5952L13.9174 28.6099C14.3305 28.8789 14.8013 29 15.2672 29C15.544 29 15.8169 28.9556 16.0745 28.8797C16.0786 28.8782 16.0829 28.8789 16.087 28.8774C16.0891 28.8765 16.0903 28.875 16.0922 28.874C16.3114 28.8073 16.5201 28.7193 16.7055 28.6069C17.5942 28.068 17.9542 27.1472 17.6448 26.2045C16.7571 23.4986 16.8293 21.4664 17.8596 20.1656C19.643 17.9151 23.7803 18.4682 23.8211 18.4754L24.3024 18.5434L24.3505 18.0414C24.3571 17.9753 24.4953 16.408 23.615 15.3433C23.564 15.2816 23.5104 15.2226 23.4544 15.1666C23.703 15.1094 23.9494 15.0276 24.191 14.921C25.8608 14.1876 26.9635 12.5523 26.9991 10.7536ZM8.20806 22.3166L8.07688 22.0491L7.78799 22.0511C7.78387 22.0511 7.77956 22.0511 7.77585 22.0511C7.03852 22.0511 6.28144 21.5862 5.88954 20.8904C5.60394 20.3837 5.54554 19.8307 5.72895 19.3729L5.87124 19.0182L5.57248 18.7922C5.11231 18.4438 4.71897 17.989 4.43543 17.4759C3.93475 16.5697 3.80275 15.5759 4.07437 14.7501C4.27772 14.1323 4.68545 13.677 5.25378 13.4329L5.80853 13.1949L5.45137 12.6944C5.28421 12.4596 5.13904 12.2148 5.02102 11.9672C4.54029 10.9574 4.42741 9.82904 4.72041 8.94913C4.9143 8.3653 5.2692 7.93143 5.74581 7.69495L6.14656 7.49564L5.97569 7.06903L5.95492 7.02289C5.54349 6.01309 5.49702 4.93942 5.83238 4.1456C5.96582 3.82901 6.22757 3.41351 6.71303 3.23599C7.18019 3.06488 7.73884 3.18344 8.28887 3.56775L8.82922 3.94629L9.00153 3.29303C9.19522 2.56052 9.61467 2.0882 10.1532 1.99783C10.8549 1.87372 11.6865 2.5022 12.1777 3.51199C12.2169 3.59317 12.2535 3.67584 12.2873 3.76065C12.2764 3.76685 12.2675 3.77518 12.2568 3.78159C12.1608 3.84076 12.0677 3.90506 11.9782 3.97406C11.9244 4.01508 11.8738 4.05865 11.8228 4.10309C11.7886 4.13278 11.7553 4.16333 11.7226 4.19388C11.5343 4.36948 11.3673 4.56516 11.2234 4.77856C11.2127 4.79459 11.2028 4.81082 11.1922 4.82684C11.1093 4.95416 11.0353 5.0864 10.9693 5.22418C10.9528 5.25772 10.936 5.29126 10.9205 5.32523C10.892 5.39059 10.8658 5.45618 10.8412 5.52325C10.8149 5.59332 10.7924 5.66425 10.7708 5.73624C10.753 5.79626 10.7353 5.85544 10.7209 5.91675C10.695 6.02142 10.6748 6.12802 10.659 6.2359C10.6534 6.27542 10.6483 6.3143 10.6436 6.35425C10.6282 6.48755 10.6179 6.62213 10.6179 6.75928C10.6179 6.84836 10.6216 6.93723 10.6282 7.0278C8.85369 7.35934 7.5287 8.96109 7.5287 10.8858C7.5287 11.4423 7.64426 11.9939 7.86633 12.5013C7.36771 13.0554 7.08766 13.7845 7.08766 14.554C7.08766 15.7039 7.72342 16.7468 8.70051 17.2488C8.69825 17.509 8.70195 17.7624 8.71038 18.011C8.71326 18.0922 8.71922 18.171 8.72312 18.2513C8.73094 18.4167 8.7404 18.5816 8.75356 18.7425C8.76096 18.8345 8.77124 18.9245 8.78008 19.0148C8.79468 19.1603 8.81051 19.3049 8.82984 19.4464C8.84197 19.5388 8.85595 19.6307 8.87014 19.7217C8.89111 19.858 8.91414 19.9926 8.93943 20.1259C8.95629 20.2158 8.97398 20.3053 8.99269 20.3944C9.02086 20.5271 9.0517 20.6591 9.08398 20.7894C9.10475 20.8736 9.12531 20.9575 9.14731 21.0408C9.18432 21.1776 9.22462 21.3121 9.26616 21.4459C9.28877 21.5193 9.31016 21.5937 9.33421 21.6667C9.38706 21.8278 9.44504 21.987 9.50508 22.1455C9.52153 22.1886 9.53592 22.2335 9.55278 22.2766C9.63092 22.477 9.71481 22.6761 9.80405 22.8731C9.82934 22.929 9.85751 22.9844 9.88362 23.0399C9.94962 23.1809 10.0167 23.3215 10.0884 23.4616C10.1267 23.5366 10.168 23.6116 10.2083 23.6868C10.2724 23.807 10.337 23.9271 10.4053 24.0463C10.4515 24.1275 10.4998 24.2086 10.5476 24.2894C10.6146 24.4028 10.6828 24.5161 10.7536 24.6295C10.8056 24.7132 10.8589 24.7968 10.9127 24.8805C10.9853 24.9929 11.0597 25.1052 11.136 25.218C11.1922 25.3018 11.2489 25.3853 11.3073 25.469C11.3875 25.5837 11.4704 25.6995 11.5536 25.8153C11.6131 25.8976 11.671 25.9798 11.7325 26.0625C11.8234 26.1855 11.9184 26.3101 12.0134 26.4346C12.0714 26.5109 12.1275 26.5863 12.1871 26.6632C12.1923 26.67 12.1974 26.6768 12.2025 26.6837C10.483 25.6884 9.26759 24.4782 8.20806 22.3166ZM21.7503 14.1946L21.6257 14.1731L21.1725 14.282L21.1228 15.3555L21.5901 15.3813C22.1665 15.4119 22.5952 15.606 22.9009 15.9733C23.2723 16.4193 23.3845 17.0348 23.415 17.4584C22.127 17.3712 18.8526 17.3842 17.1386 19.544C15.8857 21.1224 15.7581 23.4684 16.758 26.5173C16.9794 27.193 16.524 27.5894 16.2326 27.7659C16.2121 27.7787 16.1886 27.7868 16.1676 27.7986C15.2518 25.4579 14.6802 23.3755 14.3722 21.5281C14.3701 21.5164 14.3693 21.5052 14.3671 21.4941C14.1236 20.0204 14.0445 18.6959 14.0903 17.5094C14.7458 16.3484 16.6724 16.3016 16.692 16.3012C16.9504 16.2967 17.1569 16.0764 17.1532 15.8079C17.1495 15.5413 16.9412 15.3283 16.6856 15.3283C16.6835 15.3283 16.6819 15.3283 16.6798 15.3283C16.6035 15.3292 15.2687 15.3595 14.2098 16.0493C14.3389 15.0861 14.554 14.2329 14.8202 13.4752C14.8466 13.442 14.8704 13.4059 14.8881 13.3647C14.9154 13.3026 14.928 13.2372 14.9288 13.1731C15.2646 12.2955 15.6686 11.5592 16.0891 10.9448C18.1882 10.4911 19.7721 11.1734 19.8072 11.1885C19.8687 11.2167 19.9323 11.2293 19.9941 11.2293C20.1745 11.2293 20.3462 11.1204 20.4235 10.9386C20.5273 10.6925 20.4191 10.4054 20.1827 10.2975C20.1177 10.2678 18.826 9.69531 16.9687 9.83588C17.8757 8.85278 18.6724 8.40717 18.7909 8.34457C19.4711 8.00598 20.465 8.44327 20.7913 8.6413C20.8657 8.68701 20.9472 8.70837 21.0282 8.70837C21.1884 8.70837 21.3448 8.62271 21.4318 8.46912C21.563 8.23755 21.4894 7.93976 21.2661 7.80325C21.2126 7.77014 20.1601 7.13782 19.082 7.26471C19.1741 6.87036 19.3787 6.5119 19.4832 6.36792C19.6401 6.15472 19.6006 5.84988 19.3952 5.68689C19.1906 5.5239 18.896 5.56384 18.7393 5.77789C18.7097 5.8172 18.0955 6.66357 18.0969 7.63791C17.4157 8.07135 15.6559 9.38513 14.4244 12.0253C14.358 12.1674 14.2939 12.3201 14.2301 12.4735C12.953 11.5662 13.1632 9.9523 13.1749 9.87411C13.2148 9.60944 13.041 9.36078 12.7859 9.31848C12.5311 9.27383 12.2906 9.45712 12.2498 9.72223C12.1141 10.6051 12.3089 12.4243 13.8861 13.4015C13.5378 14.4659 13.2738 15.7364 13.1922 17.236C13.1829 17.2832 13.1809 17.3289 13.1848 17.3755C13.136 18.4267 13.1829 19.5927 13.3458 20.8695C12.7522 20.5301 12.4805 20.0334 12.4633 19.9998C12.3411 19.7638 12.0592 19.6734 11.8318 19.7984C11.6032 19.9234 11.5148 20.2177 11.6357 20.4555C11.6603 20.5049 12.2208 21.5811 13.5162 21.997C13.8308 23.791 14.3837 25.7965 15.2452 28.0242C14.9494 28.0199 14.6576 27.9434 14.4086 27.7804L14.409 27.7791C14.3586 27.7454 14.3165 27.7129 14.2752 27.6798C14.2242 27.6367 14.1726 27.5944 14.1277 27.5422C14.1255 27.5397 14.1226 27.5373 14.1203 27.5348L13.9236 27.3023C10.9919 23.7968 9.52441 21.2325 9.6412 16.9442L9.65107 16.5896L9.32887 16.4719C8.54753 16.1843 8.02218 15.414 8.02218 14.5548C8.02218 13.9434 8.28352 13.3701 8.73855 12.9819L9.04574 12.7202L8.84629 12.3626C8.59585 11.9127 8.46323 11.4024 8.46323 10.8873C8.46323 9.30161 9.65909 8.00812 11.1854 7.94168L11.7541 7.9169L11.6211 7.34183C11.5752 7.14444 11.5524 6.94833 11.5524 6.76077C11.5524 6.61145 11.5682 6.46597 11.5931 6.32285C11.5991 6.28632 11.6089 6.2515 11.6163 6.21582C11.6408 6.10452 11.6712 5.99493 11.7095 5.88962C11.7198 5.86035 11.7307 5.83173 11.7424 5.80289C11.7934 5.67792 11.8514 5.55637 11.9207 5.4425C11.9235 5.43823 11.9254 5.43332 11.9281 5.42883C12.079 5.18381 12.2714 4.96933 12.4929 4.79117C12.5233 4.76682 12.5556 4.74545 12.5868 4.7226C12.6619 4.66812 12.7396 4.61899 12.82 4.5737C12.8706 4.5455 12.9212 4.51837 12.974 4.49402C13.2203 4.37866 13.4862 4.29898 13.7685 4.27719L14.2011 4.24301V3.79077L14.2003 3.75275C14.2161 2.76923 14.9901 1.97348 15.9404 1.97348C16.3638 1.97348 16.7758 2.14096 17.1001 2.44495L17.4285 2.75278L17.7431 2.42978C18.0735 2.09033 18.5273 1.92776 18.9969 1.98587C19.5848 2.05786 20.0951 2.51352 20.2656 3.11957C20.3223 3.31952 20.3392 3.52289 20.3161 3.72369L20.2678 4.26608H20.7946C22.165 4.26608 23.3115 5.37906 23.4057 6.79987L23.4273 7.11923L23.718 7.2254C25.152 7.74771 26.0939 9.15784 26.0627 10.7344C26.0345 12.1498 25.1565 13.4412 23.8266 14.0248C23.1571 14.3177 22.4778 14.373 21.7503 14.1946Z" fill="#97B637"/>
<path d="M26.9991 10.7536C27.0365 8.85941 25.9656 7.15576 24.3065 6.41919C24.0645 4.80292 22.8107 3.53955 21.2525 3.3255C21.2385 3.16443 21.2091 3.004 21.1645 2.84549C20.8898 1.87073 20.0624 1.13672 19.1069 1.01901C18.4962 0.943604 17.8938 1.10361 17.4032 1.46121C16.9673 1.1615 16.4602 1 15.9404 1C14.6019 1 13.4895 2.02731 13.2958 3.3631C13.2481 3.37314 13.202 3.38724 13.1554 3.39899C13.1114 3.28854 13.0659 3.1796 13.0143 3.07364C12.3304 1.66693 11.1225 0.849182 10.0031 1.03696C9.26842 1.16086 8.6598 1.67953 8.30264 2.46161C7.6566 2.15271 6.99739 2.10016 6.40173 2.31805C5.76658 2.55069 5.2731 3.04736 4.97476 3.7551C4.57915 4.6929 4.57874 5.89859 4.96118 7.04553C4.44571 7.41339 4.06038 7.95364 3.83523 8.63126C3.45649 9.76901 3.58294 11.1418 4.1817 12.3991C4.24729 12.5363 4.31884 12.6726 4.39698 12.8063C3.83482 13.1861 3.41372 13.7495 3.18816 14.4367C2.82957 15.5272 2.9883 16.8124 3.62345 17.9612C3.91522 18.4891 4.30157 18.9672 4.75146 19.3603C4.60115 20.0139 4.71486 20.7324 5.08106 21.3826C5.59654 22.2963 6.52345 22.912 7.50012 23.0109C9.03854 26.0125 10.9473 27.3015 13.8847 28.5952L13.9174 28.6099C14.3305 28.8789 14.8013 29 15.2672 29C15.544 29 15.8169 28.9556 16.0745 28.8797C16.0786 28.8782 16.0829 28.8789 16.087 28.8774C16.0891 28.8765 16.0903 28.875 16.0922 28.874C16.3114 28.8073 16.5201 28.7193 16.7055 28.6069C17.5942 28.068 17.9542 27.1472 17.6448 26.2045C16.7571 23.4986 16.8293 21.4664 17.8596 20.1656C19.643 17.9151 23.7803 18.4682 23.8211 18.4754L24.3024 18.5434L24.3505 18.0414C24.3571 17.9753 24.4953 16.408 23.615 15.3433C23.564 15.2816 23.5104 15.2226 23.4544 15.1666C23.703 15.1094 23.9494 15.0276 24.191 14.921C25.8608 14.1876 26.9635 12.5523 26.9991 10.7536ZM8.20806 22.3166L8.07688 22.0491L7.78799 22.0511C7.78387 22.0511 7.77956 22.0511 7.77585 22.0511C7.03852 22.0511 6.28144 21.5862 5.88954 20.8904C5.60394 20.3837 5.54554 19.8307 5.72895 19.3729L5.87124 19.0182L5.57248 18.7922C5.11231 18.4438 4.71897 17.989 4.43543 17.4759C3.93475 16.5697 3.80275 15.5759 4.07437 14.7501C4.27772 14.1323 4.68545 13.677 5.25378 13.4329L5.80853 13.1949L5.45137 12.6944C5.28421 12.4596 5.13904 12.2148 5.02102 11.9672C4.54029 10.9574 4.42741 9.82904 4.72041 8.94913C4.9143 8.3653 5.2692 7.93143 5.74581 7.69495L6.14656 7.49564L5.97569 7.06903L5.95492 7.02289C5.54349 6.01309 5.49702 4.93942 5.83238 4.1456C5.96582 3.82901 6.22757 3.41351 6.71303 3.23599C7.18019 3.06488 7.73884 3.18344 8.28887 3.56775L8.82922 3.94629L9.00153 3.29303C9.19522 2.56052 9.61467 2.0882 10.1532 1.99783C10.8549 1.87372 11.6865 2.5022 12.1777 3.51199C12.2169 3.59317 12.2535 3.67584 12.2873 3.76065C12.2764 3.76685 12.2675 3.77518 12.2568 3.78159C12.1608 3.84076 12.0677 3.90506 11.9782 3.97406C11.9244 4.01508 11.8738 4.05865 11.8228 4.10309C11.7886 4.13278 11.7553 4.16333 11.7226 4.19388C11.5343 4.36948 11.3673 4.56516 11.2234 4.77856C11.2127 4.79459 11.2028 4.81082 11.1922 4.82684C11.1093 4.95416 11.0353 5.0864 10.9693 5.22418C10.9528 5.25772 10.936 5.29126 10.9205 5.32523C10.892 5.39059 10.8658 5.45618 10.8412 5.52325C10.8149 5.59332 10.7924 5.66425 10.7708 5.73624C10.753 5.79626 10.7353 5.85544 10.7209 5.91675C10.695 6.02142 10.6748 6.12802 10.659 6.2359C10.6534 6.27542 10.6483 6.3143 10.6436 6.35425C10.6282 6.48755 10.6179 6.62213 10.6179 6.75928C10.6179 6.84836 10.6216 6.93723 10.6282 7.0278C8.85369 7.35934 7.5287 8.96109 7.5287 10.8858C7.5287 11.4423 7.64426 11.9939 7.86633 12.5013C7.36771 13.0554 7.08766 13.7845 7.08766 14.554C7.08766 15.7039 7.72342 16.7468 8.70051 17.2488C8.69825 17.509 8.70195 17.7624 8.71038 18.011C8.71326 18.0922 8.71922 18.171 8.72312 18.2513C8.73094 18.4167 8.7404 18.5816 8.75356 18.7425C8.76096 18.8345 8.77124 18.9245 8.78008 19.0148C8.79468 19.1603 8.81051 19.3049 8.82984 19.4464C8.84197 19.5388 8.85595 19.6307 8.87014 19.7217C8.89111 19.858 8.91414 19.9926 8.93943 20.1259C8.95629 20.2158 8.97398 20.3053 8.99269 20.3944C9.02086 20.5271 9.0517 20.6591 9.08398 20.7894C9.10475 20.8736 9.12531 20.9575 9.14731 21.0408C9.18432 21.1776 9.22462 21.3121 9.26616 21.4459C9.28877 21.5193 9.31016 21.5937 9.33421 21.6667C9.38706 21.8278 9.44504 21.987 9.50508 22.1455C9.52153 22.1886 9.53592 22.2335 9.55278 22.2766C9.63092 22.477 9.71481 22.6761 9.80405 22.8731C9.82934 22.929 9.85751 22.9844 9.88362 23.0399C9.94962 23.1809 10.0167 23.3215 10.0884 23.4616C10.1267 23.5366 10.168 23.6116 10.2083 23.6868C10.2724 23.807 10.337 23.9271 10.4053 24.0463C10.4515 24.1275 10.4998 24.2086 10.5476 24.2894C10.6146 24.4028 10.6828 24.5161 10.7536 24.6295C10.8056 24.7132 10.8589 24.7968 10.9127 24.8805C10.9853 24.9929 11.0597 25.1052 11.136 25.218C11.1922 25.3018 11.2489 25.3853 11.3073 25.469C11.3875 25.5837 11.4704 25.6995 11.5536 25.8153C11.6131 25.8976 11.671 25.9798 11.7325 26.0625C11.8234 26.1855 11.9184 26.3101 12.0134 26.4346C12.0714 26.5109 12.1275 26.5863 12.1871 26.6632C12.1923 26.67 12.1974 26.6768 12.2025 26.6837C10.483 25.6884 9.26759 24.4782 8.20806 22.3166ZM21.7503 14.1946L21.6257 14.1731L21.1725 14.282L21.1228 15.3555L21.5901 15.3813C22.1665 15.4119 22.5952 15.606 22.9009 15.9733C23.2723 16.4193 23.3845 17.0348 23.415 17.4584C22.127 17.3712 18.8526 17.3842 17.1386 19.544C15.8857 21.1224 15.7581 23.4684 16.758 26.5173C16.9794 27.193 16.524 27.5894 16.2326 27.7659C16.2121 27.7787 16.1886 27.7868 16.1676 27.7986C15.2518 25.4579 14.6802 23.3755 14.3722 21.5281C14.3701 21.5164 14.3693 21.5052 14.3671 21.4941C14.1236 20.0204 14.0445 18.6959 14.0903 17.5094C14.7458 16.3484 16.6724 16.3016 16.692 16.3012C16.9504 16.2967 17.1569 16.0764 17.1532 15.8079C17.1495 15.5413 16.9412 15.3283 16.6856 15.3283C16.6835 15.3283 16.6819 15.3283 16.6798 15.3283C16.6035 15.3292 15.2687 15.3595 14.2098 16.0493C14.3389 15.0861 14.554 14.2329 14.8202 13.4752C14.8466 13.442 14.8704 13.4059 14.8881 13.3647C14.9154 13.3026 14.928 13.2372 14.9288 13.1731C15.2646 12.2955 15.6686 11.5592 16.0891 10.9448C18.1882 10.4911 19.7721 11.1734 19.8072 11.1885C19.8687 11.2167 19.9323 11.2293 19.9941 11.2293C20.1745 11.2293 20.3462 11.1204 20.4235 10.9386C20.5273 10.6925 20.4191 10.4054 20.1827 10.2975C20.1177 10.2678 18.826 9.69531 16.9687 9.83588C17.8757 8.85278 18.6724 8.40717 18.7909 8.34457C19.4711 8.00598 20.465 8.44327 20.7913 8.6413C20.8657 8.68701 20.9472 8.70837 21.0282 8.70837C21.1884 8.70837 21.3448 8.62271 21.4318 8.46912C21.563 8.23755 21.4894 7.93976 21.2661 7.80325C21.2126 7.77014 20.1601 7.13782 19.082 7.26471C19.1741 6.87036 19.3787 6.5119 19.4832 6.36792C19.6401 6.15472 19.6006 5.84988 19.3952 5.68689C19.1906 5.5239 18.896 5.56384 18.7393 5.77789C18.7097 5.8172 18.0955 6.66357 18.0969 7.63791C17.4157 8.07135 15.6559 9.38513 14.4244 12.0253C14.358 12.1674 14.2939 12.3201 14.2301 12.4735C12.953 11.5662 13.1632 9.9523 13.1749 9.87411C13.2148 9.60944 13.041 9.36078 12.7859 9.31848C12.5311 9.27383 12.2906 9.45712 12.2498 9.72223C12.1141 10.6051 12.3089 12.4243 13.8861 13.4015C13.5378 14.4659 13.2738 15.7364 13.1922 17.236C13.1829 17.2832 13.1809 17.3289 13.1848 17.3755C13.136 18.4267 13.1829 19.5927 13.3458 20.8695C12.7522 20.5301 12.4805 20.0334 12.4633 19.9998C12.3411 19.7638 12.0592 19.6734 11.8318 19.7984C11.6032 19.9234 11.5148 20.2177 11.6357 20.4555C11.6603 20.5049 12.2208 21.5811 13.5162 21.997C13.8308 23.791 14.3837 25.7965 15.2452 28.0242C14.9494 28.0199 14.6576 27.9434 14.4086 27.7804L14.409 27.7791C14.3586 27.7454 14.3165 27.7129 14.2752 27.6798C14.2242 27.6367 14.1726 27.5944 14.1277 27.5422C14.1255 27.5397 14.1226 27.5373 14.1203 27.5348L13.9236 27.3023C10.9919 23.7968 9.52441 21.2325 9.6412 16.9442L9.65107 16.5896L9.32887 16.4719C8.54753 16.1843 8.02218 15.414 8.02218 14.5548C8.02218 13.9434 8.28352 13.3701 8.73855 12.9819L9.04574 12.7202L8.84629 12.3626C8.59585 11.9127 8.46323 11.4024 8.46323 10.8873C8.46323 9.30161 9.65909 8.00812 11.1854 7.94168L11.7541 7.9169L11.6211 7.34183C11.5752 7.14444 11.5524 6.94833 11.5524 6.76077C11.5524 6.61145 11.5682 6.46597 11.5931 6.32285C11.5991 6.28632 11.6089 6.2515 11.6163 6.21582C11.6408 6.10452 11.6712 5.99493 11.7095 5.88962C11.7198 5.86035 11.7307 5.83173 11.7424 5.80289C11.7934 5.67792 11.8514 5.55637 11.9207 5.4425C11.9235 5.43823 11.9254 5.43332 11.9281 5.42883C12.079 5.18381 12.2714 4.96933 12.4929 4.79117C12.5233 4.76682 12.5556 4.74545 12.5868 4.7226C12.6619 4.66812 12.7396 4.61899 12.82 4.5737C12.8706 4.5455 12.9212 4.51837 12.974 4.49402C13.2203 4.37866 13.4862 4.29898 13.7685 4.27719L14.2011 4.24301V3.79077L14.2003 3.75275C14.2161 2.76923 14.9901 1.97348 15.9404 1.97348C16.3638 1.97348 16.7758 2.14096 17.1001 2.44495L17.4285 2.75278L17.7431 2.42978C18.0735 2.09033 18.5273 1.92776 18.9969 1.98587C19.5848 2.05786 20.0951 2.51352 20.2656 3.11957C20.3223 3.31952 20.3392 3.52289 20.3161 3.72369L20.2678 4.26608H20.7946C22.165 4.26608 23.3115 5.37906 23.4057 6.79987L23.4273 7.11923L23.718 7.2254C25.152 7.74771 26.0939 9.15784 26.0627 10.7344C26.0345 12.1498 25.1565 13.4412 23.8266 14.0248C23.1571 14.3177 22.4778 14.373 21.7503 14.1946Z" stroke="#97B637" stroke-width="0.2" mask="url(#path-1-outside-1)"/>
</svg>
