<svg width="30" height="30" viewBox="0 0 30 30" fill="none" xmlns="http://www.w3.org/2000/svg">
<path d="M20.1738 27C19.3384 27 18.5505 26.6208 18.0122 25.9595L12.6538 19.378V24.0702C12.6538 25.6856 11.3856 26.9999 9.82684 26.9999C8.26807 26.9999 6.99991 25.6856 6.99991 24.0702V4.92969C6.99991 3.31426 8.26807 2 9.82684 2C11.3856 2 12.6538 3.31426 12.6538 4.92969V9.62192L18.0121 3.04043C19.0173 1.80586 20.8044 1.64883 21.9957 2.69053C22.5729 3.19521 22.9258 3.90254 22.9896 4.68232C23.0533 5.46206 22.8203 6.2209 22.3333 6.81899L16.0798 14.5L22.3334 22.181C23.3385 23.4157 23.1871 25.2676 21.9958 26.3094C21.4865 26.7547 20.8394 27 20.1738 27ZM12.381 17.1748C12.5892 17.1748 12.7869 17.27 12.9211 17.4349L19.0924 25.0148C19.3616 25.3455 19.7558 25.5352 20.1738 25.5352C20.5063 25.5352 20.8296 25.4125 21.0843 25.1898C21.6799 24.669 21.7557 23.743 21.2531 23.1256L14.6149 14.9722C14.3928 14.6994 14.3928 14.3004 14.6149 14.0276L21.253 5.87432C21.4965 5.57524 21.6131 5.19585 21.5812 4.80601C21.5493 4.41611 21.3728 4.06245 21.0843 3.81011C20.4886 3.28931 19.5951 3.36777 19.0924 3.98506L12.4872 12.098C12.2958 12.3331 11.9831 12.4192 11.7044 12.3137C11.4257 12.2081 11.2403 11.9333 11.2403 11.6258V4.92969C11.2403 4.12197 10.6062 3.46484 9.82684 3.46484C9.04745 3.46484 8.41337 4.12197 8.41337 4.92969V24.0703C8.41337 24.878 9.04745 25.5351 9.82684 25.5351C10.6062 25.5351 11.2403 24.878 11.2403 24.0703V18.4402C11.2403 18.2673 11.2993 18.1 11.4069 17.9679L11.8408 17.4349C11.9752 17.27 12.1728 17.1748 12.381 17.1748Z" fill="#1EB7CC"/>
</svg>
