<svg width="30" height="30" viewBox="0 0 30 30" fill="none" xmlns="http://www.w3.org/2000/svg">
<path d="M28.8238 6.30867C28.7443 6.19509 28.6296 6.12068 28.5046 6.09008C28.2503 6.02235 25.348 5.29348 23.3131 6.69359C23.1799 6.78519 23.0545 6.88389 22.9358 6.9879C23.0634 6.00579 23.1297 5.01116 23.1297 4.0089C23.1297 3.70549 22.8838 3.45955 22.5804 3.45955C22.277 3.45955 22.031 3.70549 22.031 4.0089C22.031 4.55357 22.0106 5.09366 21.9717 5.62881C20.8511 3.90978 18.6279 3.15309 18.2453 3.03336C18.1251 2.98945 17.989 2.98719 17.8601 3.03672C17.7289 3.0871 17.6281 3.18233 17.5686 3.29833C17.4537 3.51177 16.2562 5.81259 16.7947 7.98401C16.748 7.98264 16.7005 7.98679 16.6528 7.99794C16.5207 8.02896 16.411 8.10537 16.3363 8.20686C16.1895 8.39795 14.6993 10.3961 14.8105 12.5718C14.2901 12.1972 13.8543 11.968 13.7085 11.8949C13.5953 11.8317 13.4593 11.8081 13.3228 11.8382C13.1927 11.8667 13.0836 11.9393 13.0077 12.0368C12.9417 12.1212 11.6699 13.7725 11.4883 15.7236C11.0987 15.3339 10.7711 15.0767 10.6523 14.9872C10.555 14.9064 10.4284 14.8574 10.2933 14.8607C10.1511 14.8628 10.0224 14.9187 9.92603 15.0089C9.73321 15.1828 7.53708 17.2197 7.6017 19.6908C7.64919 21.4861 8.89033 22.9628 9.67379 23.719C7.47077 24.7771 5.05389 25.4798 2.49183 25.7497C2.19016 25.7815 1.9713 26.0518 2.00306 26.3536C2.03277 26.6358 2.27114 26.8454 2.54873 26.8454C2.56798 26.8454 2.58738 26.8443 2.60694 26.8423C5.32386 26.5561 7.93972 25.7889 10.3472 24.5985C10.8433 25.4041 12.1875 27.2767 14.1979 27.7337C14.521 27.8071 14.8437 27.8393 15.1615 27.8393C17.1603 27.8392 18.9556 26.5658 19.3415 26.2717C19.3937 26.2385 19.4408 26.1961 19.4801 26.1455C19.6083 25.9805 19.6318 25.757 19.5407 25.5689C19.4945 25.4736 18.6306 23.723 17.0708 22.6594C17.7659 23.0126 18.5838 23.2853 19.4557 23.2852C19.5315 23.2852 19.608 23.2831 19.6846 23.2789C22.0354 23.1478 23.7895 20.9677 24.1215 20.5238C24.1622 20.4779 24.1955 20.4247 24.2194 20.366C24.2983 20.1717 24.2596 19.9493 24.1197 19.7931C24.0645 19.7313 23.2298 18.8125 21.9993 18.1519C22.6681 18.1217 23.3659 17.9809 24.0124 17.6475C26.107 16.5667 26.8157 13.8631 26.9374 13.3207C26.9554 13.2636 26.9642 13.203 26.9625 13.1412C26.9567 12.9298 26.8303 12.7406 26.6373 12.6544C26.5796 12.6286 25.9059 12.3334 24.9722 12.1498C25.5389 12.0287 26.1054 11.8157 26.6164 11.4639C28.6073 10.0934 28.8878 7.14098 28.9194 6.68717C28.9344 6.55813 28.904 6.42336 28.8238 6.30867ZM22.2033 12.1689C21.9821 12.2268 21.7628 12.3021 21.548 12.3975C21.5913 12.2869 21.6335 12.176 21.6751 12.0647C21.8154 12.0971 21.9942 12.1343 22.2033 12.1689ZM18.3397 4.23486C19.1384 4.55336 20.7871 5.36216 21.3343 6.77636C21.8827 8.19324 21.2501 9.89634 20.8954 10.6664C20.5104 10.5039 19.9206 10.2173 19.3577 9.79395C19.0941 9.50569 18.8144 9.25097 18.543 9.03112C18.3105 8.753 18.113 8.4407 17.9781 8.09217C17.4326 6.68149 18.008 5.00374 18.3397 4.23486ZM20.6312 11.744C20.6054 11.8125 20.5804 11.8814 20.5539 11.9495C20.5332 11.8595 20.5097 11.7707 20.4831 11.6835C20.5355 11.7054 20.585 11.7256 20.6312 11.744ZM16.9472 9.2546C17.1745 9.39111 17.4741 9.58683 17.7888 9.83539C18.0413 10.1214 18.3189 10.375 18.6031 10.5965C19.0145 11.0598 19.3614 11.614 19.4943 12.2443C19.8078 13.7309 18.9095 15.3102 18.4356 16.0133C17.7266 15.5679 16.2853 14.4981 15.9703 13.0035C15.6587 11.524 16.4962 9.96038 16.9472 9.2546ZM17.3173 16.5782C17.5046 16.7158 17.6794 16.8333 17.8304 16.9288C17.6314 17.2014 17.4257 17.469 17.2144 17.7318C17.2901 17.3601 17.3304 16.9724 17.3173 16.5782ZM13.6093 13.0963C14.3465 13.5391 15.8438 14.6025 16.1565 16.0862C16.47 17.5728 15.5717 19.1521 15.0978 19.8552C14.3889 19.4097 12.9475 18.3399 12.6325 16.8454C12.3207 15.3644 13.1584 13.8014 13.6093 13.0963ZM15.2135 21.3607C15.4649 21.5911 15.869 21.9316 16.3824 22.2629C16.1034 22.1307 15.807 22.0243 15.4938 21.9532C15.2038 21.8873 14.9138 21.8563 14.6273 21.8526C14.8252 21.692 15.0206 21.5281 15.2135 21.3607ZM14.3498 20.678C13.8562 21.0981 13.3433 21.4967 12.8124 21.8723C13.1082 21.2968 13.3355 20.6439 13.3901 19.946C13.7341 20.2493 14.0707 20.4938 14.3498 20.678ZM8.70014 19.6617C8.66054 18.1492 9.76644 16.7627 10.3372 16.1503C10.9823 16.7189 12.2633 18.035 12.3033 19.5505C12.3435 21.0692 11.1752 22.4607 10.5823 23.0667C9.96526 22.5008 8.74052 21.1888 8.70014 19.6617ZM18.3257 25.645C17.6105 26.1141 15.9827 27.0122 14.4413 26.6623C12.9142 26.3151 11.8101 24.8471 11.3494 24.127C12.0743 23.6308 13.7207 22.6773 15.2505 23.0246C16.7836 23.3726 17.8768 24.9045 18.3257 25.645ZM22.972 20.2007C22.4242 20.8341 21.1484 22.0967 19.6235 22.1817C18.1119 22.2664 16.6938 21.2006 16.0656 20.6483C16.6149 19.9868 17.893 18.6677 19.4069 18.5834C20.9242 18.4991 22.3488 19.6258 22.972 20.2007ZM25.7562 13.4952C25.5149 14.297 24.8661 15.9706 23.5087 16.671C22.1633 17.3647 20.4339 16.9718 19.6347 16.7241C19.866 15.8959 20.4939 14.1701 21.8415 13.4747C23.1916 12.7781 24.9525 13.2249 25.7562 13.4952ZM25.9932 10.5588C24.7418 11.4204 22.9385 11.1993 22.1072 11.0325C22.2455 10.2066 22.6779 8.46463 23.936 7.59856C25.1825 6.74102 26.9478 6.91239 27.7723 7.057C27.6473 7.90776 27.2423 9.69899 25.9932 10.5588Z" fill="#E19B14"/>
</svg>
