<svg width="30" height="30" viewBox="0 0 30 30" fill="none" xmlns="http://www.w3.org/2000/svg">
<path d="M11.0416 10.7886L11.0416 10.7887L9.41271 14.7529L9.41271 14.7529L9.4127 14.7529L9.4127 14.7529L9.41269 14.753L9.41269 14.753L9.41269 14.753L9.41268 14.753L9.41268 14.753L9.41268 14.753L9.41267 14.753L9.41267 14.753L9.41266 14.753L9.41266 14.753L9.41266 14.753L9.41265 14.753L9.41265 14.7531L9.41265 14.7531L9.41264 14.7531L9.41264 14.7531L9.41263 14.7531L9.41263 14.7531L9.41263 14.7531L9.41262 14.7531L9.41262 14.7531L9.41262 14.7531L9.41261 14.7531L9.41261 14.7532L9.4126 14.7532L9.4126 14.7532L9.4126 14.7532L9.41259 14.7532L9.41259 14.7532L9.41259 14.7532L9.41258 14.7532L9.41258 14.7532L9.41257 14.7532L9.41257 14.7532L9.41257 14.7533L9.41256 14.7533L9.41256 14.7533L9.41255 14.7533L9.41255 14.7533L9.41255 14.7533L9.41254 14.7533L9.41254 14.7533L9.41254 14.7533L9.41253 14.7533L9.41253 14.7533L9.41252 14.7533L9.41252 14.7534L9.41252 14.7534L9.41251 14.7534L9.41251 14.7534L9.41251 14.7534L9.4125 14.7534L9.4125 14.7534L9.41249 14.7534L9.41249 14.7534L9.41249 14.7534L9.41248 14.7534L9.41248 14.7535L9.41248 14.7535L9.41247 14.7535L9.41247 14.7535L9.41246 14.7535L9.41246 14.7535L9.41246 14.7535L9.41245 14.7535L9.41245 14.7535L9.41245 14.7535L9.41244 14.7535L9.41244 14.7535L9.41243 14.7536L9.41243 14.7536L9.41243 14.7536L9.41242 14.7536L9.41242 14.7536L9.41242 14.7536L9.41241 14.7536L9.41241 14.7536L9.4124 14.7536L9.4124 14.7536L9.4124 14.7536L9.41239 14.7537L9.41239 14.7537L9.41239 14.7537L9.41238 14.7537L9.41238 14.7537L9.41237 14.7537L9.41237 14.7537L9.41237 14.7537L9.41236 14.7537L9.41236 14.7537L9.41236 14.7537L9.41235 14.7537L9.41235 14.7538L9.41234 14.7538L9.41234 14.7538L9.41234 14.7538L9.41233 14.7538L9.41233 14.7538L9.41233 14.7538L9.41232 14.7538L9.41232 14.7538L9.41231 14.7538L9.41231 14.7538L9.41231 14.7539L9.4123 14.7539L9.4123 14.7539L9.4123 14.7539L9.41229 14.7539L9.41229 14.7539L9.41228 14.7539L9.41228 14.7539L9.41228 14.7539L9.41227 14.7539L9.41227 14.7539L9.41227 14.754L9.41226 14.754L9.41226 14.754L9.41225 14.754L9.41225 14.754L9.41225 14.754L9.41224 14.754L9.41224 14.754L9.41224 14.754L9.41223 14.754L9.41223 14.754L9.41222 14.754L9.41222 14.7541L9.41222 14.7541L9.41221 14.7541L9.41221 14.7541L9.41221 14.7541L9.4122 14.7541L9.4122 14.7541L9.41219 14.7541L9.41219 14.7541L9.41219 14.7541L9.41218 14.7541L9.41218 14.7542L9.41218 14.7542L9.41217 14.7542L9.41217 14.7542L9.41216 14.7542L9.41216 14.7542L9.41216 14.7542L9.41215 14.7542L9.41215 14.7542L9.41215 14.7542L9.41214 14.7542L9.41214 14.7542L9.41213 14.7543L9.41213 14.7543L9.41213 14.7543L9.41212 14.7543L9.41212 14.7543L9.41212 14.7543L9.41211 14.7543L9.41211 14.7543L9.4121 14.7543L9.4121 14.7543L9.4121 14.7543L9.41209 14.7544L9.41209 14.7544L9.41209 14.7544L9.41208 14.7544L9.41208 14.7544L9.41207 14.7544L9.41207 14.7544L9.41207 14.7544L9.41206 14.7544L9.41206 14.7544L9.41206 14.7544L9.41205 14.7544L9.41205 14.7545L9.41204 14.7545L9.41204 14.7545L9.41204 14.7545L9.41203 14.7545L9.41203 14.7545L9.41202 14.7545L9.41202 14.7545L9.41202 14.7545L9.41201 14.7545L9.41201 14.7545L9.41201 14.7546L9.412 14.7546L9.412 14.7546L9.41199 14.7546L9.41199 14.7546L9.41199 14.7546L9.41198 14.7546L9.41198 14.7546L9.41198 14.7546L9.41197 14.7546L9.41197 14.7546L9.41196 14.7547L9.41196 14.7547L9.41196 14.7547L9.41195 14.7547L9.41195 14.7547L9.41195 14.7547L9.41194 14.7547L9.41194 14.7547L9.41193 14.7547L9.41193 14.7547L9.41193 14.7547L9.41192 14.7547L9.41192 14.7548L9.41192 14.7548L9.41191 14.7548L9.41191 14.7548L9.4119 14.7548L9.4119 14.7548L9.4119 14.7548L9.41189 14.7548L9.41189 14.7548L9.41189 14.7548L9.41188 14.7548L9.41188 14.7549L9.41187 14.7549L9.41187 14.7549L9.41187 14.7549L9.41186 14.7549L9.41186 14.7549L9.41186 14.7549L9.41185 14.7549L9.41185 14.7549L9.41184 14.7549L9.41184 14.7549L9.41184 14.7549L9.41183 14.755L9.41183 14.755L9.41183 14.755L9.41182 14.755L9.41182 14.755L9.41181 14.755L9.41181 14.755L9.41181 14.755L9.4118 14.755L9.4118 14.755L9.4118 14.755L9.41179 14.7551L9.41179 14.7551L9.41178 14.7551L9.41178 14.7551L9.41178 14.7551L9.41177 14.7551L9.41177 14.7551L9.41177 14.7551L9.41176 14.7551L9.41176 14.7551L9.41175 14.7551L9.41175 14.7552L9.41175 14.7552L9.41174 14.7552L9.41174 14.7552L9.41174 14.7552L9.41173 14.7552L9.41173 14.7552L9.41172 14.7552L9.41172 14.7552L9.41172 14.7552L9.41171 14.7552L9.41171 14.7552L9.41171 14.7553L9.4117 14.7553L9.4117 14.7553L9.41169 14.7553L9.41169 14.7553L9.41169 14.7553L9.41168 14.7553L9.41168 14.7553L9.41167 14.7553L9.41167 14.7553L9.41167 14.7553L9.41166 14.7554L9.41166 14.7554L9.41166 14.7554L9.41165 14.7554L9.41165 14.7554L9.41164 14.7554L9.41164 14.7554L9.41164 14.7554L9.41163 14.7554L9.41163 14.7554L9.41163 14.7554L9.41162 14.7554L9.41162 14.7555L9.41161 14.7555L9.41161 14.7555L9.41161 14.7555L9.4116 14.7555L9.4116 14.7555L9.4116 14.7555L9.41159 14.7555L9.41159 14.7555L9.41158 14.7555L9.41158 14.7555L9.41158 14.7556L9.41157 14.7556L9.41157 14.7556L9.41157 14.7556L9.41156 14.7556L9.41156 14.7556L9.41155 14.7556L9.41155 14.7556L9.41155 14.7556L9.41154 14.7556L9.41154 14.7556L9.41154 14.7557L9.41153 14.7557L9.41153 14.7557L9.41152 14.7557L9.41152 14.7557L9.41152 14.7557L9.41151 14.7557L9.41151 14.7557L9.41151 14.7557L9.4115 14.7557L9.4115 14.7557L9.41149 14.7557L9.41149 14.7558L9.41149 14.7558L9.41148 14.7558L9.41148 14.7558L9.41148 14.7558L9.41147 14.7558L9.41147 14.7558L9.41146 14.7558L9.41146 14.7558L9.41146 14.7558L9.41145 14.7558L9.41145 14.7559L9.41145 14.7559L9.41144 14.7559L9.41144 14.7559L9.41143 14.7559L9.41143 14.7559L9.41143 14.7559L9.41142 14.7559L9.41142 14.7559L9.41142 14.7559L9.41141 14.7559L9.41141 14.7559L9.4114 14.756L9.4114 14.756L9.4114 14.756L9.41139 14.756L9.41139 14.756L9.41139 14.756L9.41138 14.756L9.41138 14.756L9.41137 14.756L9.41137 14.756L9.41137 14.756L9.41136 14.7561L9.41136 14.7561L9.41136 14.7561L9.41135 14.7561L9.41135 14.7561L9.41134 14.7561L9.41134 14.7561L9.41134 14.7561L9.41133 14.7561L9.41133 14.7561L9.41133 14.7561L9.41132 14.7562L9.41132 14.7562L9.41131 14.7562L9.41131 14.7562L9.41131 14.7562L9.4113 14.7562L9.4113 14.7562L9.41129 14.7562L9.41129 14.7562L9.41129 14.7562L9.41128 14.7562L9.41128 14.7562L9.41128 14.7563L9.41127 14.7563L9.41127 14.7563L9.41126 14.7563L9.41126 14.7563L9.41126 14.7563L9.41125 14.7563L9.41125 14.7563L9.41125 14.7563L9.41124 14.7563L9.41124 14.7563L9.41123 14.7564L9.41123 14.7564L9.41123 14.7564L9.41122 14.7564L9.41122 14.7564L9.41122 14.7564L9.41121 14.7564L9.41121 14.7564L9.4112 14.7564L9.4112 14.7564L9.4112 14.7564L9.41119 14.7564L9.41119 14.7565L9.41119 14.7565L9.41118 14.7565L9.41118 14.7565L9.41117 14.7565L9.41117 14.7565L9.41117 14.7565L9.41116 14.7565L9.41116 14.7565L9.41116 14.7565L9.41115 14.7565L9.41115 14.7566L9.41114 14.7566L9.41114 14.7566L9.41114 14.7566L9.41113 14.7566L9.41113 14.7566L9.41113 14.7566L9.41112 14.7566L9.41112 14.7566L9.41111 14.7566L9.41111 14.7566L9.41111 14.7566L9.4111 14.7567L9.4111 14.7567L9.4111 14.7567L9.41109 14.7567L9.41109 14.7567L9.41108 14.7567L9.41108 14.7567L9.41108 14.7567L9.41107 14.7567L9.41107 14.7567L9.41107 14.7567L9.41106 14.7568L9.41106 14.7568L9.41105 14.7568L9.41105 14.7568L9.41105 14.7568L9.41104 14.7568L9.41104 14.7568L9.41104 14.7568L9.41103 14.7568L9.41103 14.7568L9.41102 14.7568L9.41102 14.7569L9.41102 14.7569L9.41101 14.7569L9.41101 14.7569L9.41101 14.7569L9.411 14.7569L9.411 14.7569L9.41099 14.7569L9.41099 14.7569L9.41099 14.7569L9.41098 14.7569L9.41098 14.7569L9.41098 14.757L9.41097 14.757L9.41097 14.757L9.41096 14.757L9.41096 14.757L9.41096 14.757L9.41095 14.757L9.41095 14.757L9.41095 14.757L9.41094 14.757L9.41094 14.757L9.41093 14.7571L9.41093 14.7571L9.41093 14.7571L9.41092 14.7571L9.41092 14.7571L9.41092 14.7571L9.41091 14.7571L9.41091 14.7571L9.4109 14.7571L9.4109 14.7571L9.4109 14.7571L9.41089 14.7571L9.41089 14.7572L9.41089 14.7572L9.41088 14.7572L9.41088 14.7572L9.41087 14.7572L9.41087 14.7572L9.41087 14.7572L9.41086 14.7572L9.41086 14.7572L9.41086 14.7572L9.41085 14.7572L9.41085 14.7573L9.41084 14.7573L9.41084 14.7573L9.41084 14.7573L9.41083 14.7573L9.41083 14.7573L9.41083 14.7573L9.41082 14.7573L9.41082 14.7573L9.41081 14.7573L9.41081 14.7573L9.41081 14.7574L9.4108 14.7574L9.4108 14.7574L9.4108 14.7574L9.41079 14.7574L9.41079 14.7574L9.41078 14.7574L9.41077 14.7574L9.41018 14.7588L5.11126 25.2208L5.11126 25.2208C4.75431 26.0897 4.85394 27.0745 5.37794 27.8544C5.90191 28.6344 6.77627 29.1 7.71674 29.1H22.2832C23.2237 29.1 24.0983 28.6344 24.6223 27.8543L24.6223 27.8543C25.146 27.0742 25.2457 26.0897 24.8887 25.2208L24.7962 25.2588L24.8887 25.2208L18.9584 10.7887C18.9584 10.7887 18.9584 10.7887 18.9583 10.7887C18.6344 10 18.4701 9.16828 18.4701 8.31595V4.50107C18.4701 4.11685 18.6198 3.75607 18.892 3.48428C19.2655 3.11136 19.4717 2.61488 19.4717 2.08734V1.54688C19.4717 1.18941 19.1813 0.9 18.8239 0.9H11.1763C10.8187 0.9 10.5285 1.18943 10.5285 1.54688V2.08734C10.5285 2.61485 10.7345 3.11134 11.108 3.48428C11.3802 3.75606 11.5299 4.11684 11.5299 4.50128V8.31595C11.5299 9.1683 11.3658 10.0001 11.0416 10.7886ZM17.7598 11.2795L19.0256 14.36H10.9744L12.2402 11.2797C12.6285 10.3348 12.8254 9.33749 12.8254 8.31595V4.50107C12.8254 3.77168 12.5407 3.08528 12.024 2.56943C11.9205 2.466 11.8543 2.33544 11.8322 2.19375H18.168C18.1459 2.33536 18.0797 2.46581 17.9759 2.56943L17.9759 2.56945C17.4595 3.08527 17.1746 3.77145 17.1746 4.50107V8.31573C17.1746 9.3373 17.3717 10.3346 17.7598 11.2795L17.7598 11.2795ZM23.5463 27.1336L23.5463 27.1336C23.2589 27.5615 22.7994 27.8062 22.2832 27.8062H7.71674C7.20078 27.8062 6.74131 27.5616 6.45372 27.1336C6.25331 26.8352 6.16782 26.4941 6.19997 26.1539H7.01409C7.3715 26.1539 7.66183 25.8643 7.66183 25.507C7.66183 25.1496 7.37147 24.8602 7.01409 24.8602H6.66004L7.20693 23.5289H8.06378C8.42143 23.5289 8.71153 23.2393 8.71153 22.882C8.71153 22.5246 8.42141 22.2352 8.06378 22.2352H7.73862L8.28551 20.9039H9.16847C9.52612 20.9039 9.81621 20.6143 9.81621 20.257C9.81621 19.8996 9.52609 19.6102 9.16847 19.6102H8.81722L9.36429 18.2789H10.2729C10.6306 18.2789 10.9207 17.9893 10.9207 17.632C10.9207 17.2746 10.6306 16.9852 10.2729 16.9852H9.8958L10.4429 15.6539H19.5571L23.6902 25.7121C23.8859 26.1886 23.8336 26.7058 23.5463 27.1336Z" fill="#D7BB73" stroke="#D7BB73" stroke-width="0.2"/>
</svg>
