<svg width="30" height="30" viewBox="0 0 30 30" fill="none" xmlns="http://www.w3.org/2000/svg">
<mask id="path-1-outside-1" maskUnits="userSpaceOnUse" x="11.5845" y="17.8164" width="3" height="3" fill="black">
<rect fill="white" x="11.5845" y="17.8164" width="3" height="3"/>
<path d="M13.3854 18.9536C13.202 18.7707 12.905 18.7707 12.722 18.9536C12.5386 19.137 12.5386 19.4341 12.722 19.6175C12.905 19.8004 13.202 19.8004 13.3854 19.6175C13.5684 19.4341 13.5684 19.137 13.3854 18.9536Z"/>
</mask>
<path d="M13.3854 18.9536C13.202 18.7707 12.905 18.7707 12.722 18.9536C12.5386 19.137 12.5386 19.4341 12.722 19.6175C12.905 19.8004 13.202 19.8004 13.3854 19.6175C13.5684 19.4341 13.5684 19.137 13.3854 18.9536Z" fill="#D67C49"/>
<path d="M13.3854 18.9536C13.202 18.7707 12.905 18.7707 12.722 18.9536C12.5386 19.137 12.5386 19.4341 12.722 19.6175C12.905 19.8004 13.202 19.8004 13.3854 19.6175C13.5684 19.4341 13.5684 19.137 13.3854 18.9536Z" stroke="#D67C49" stroke-width="0.4" mask="url(#path-1-outside-1)"/>
<mask id="path-2-outside-2" maskUnits="userSpaceOnUse" x="2" y="2" width="26" height="26" fill="black">
<rect fill="white" x="2" y="2" width="26" height="26"/>
<path d="M25.268 10.9053C24.6043 10.6495 23.7833 10.4567 22.9239 10.3487C23.5888 9.58917 24.1133 8.79411 24.4293 8.05704C24.886 6.99156 24.8625 6.12979 24.3634 5.63062C23.8642 5.13111 23.0023 5.10748 21.9367 5.56415C21.1995 5.88009 20.4044 6.40458 19.6445 7.06965C19.5366 6.21098 19.3438 5.39108 19.088 4.72868C18.536 3.29991 17.8636 3 17.3965 3C16.8975 3 16.1854 3.33221 15.6271 4.91492C15.1684 6.21548 14.9367 8.05067 15.107 9.78605C13.7596 9.58008 12.5273 10.0489 11.5825 11.1446C8.33253 14.9142 5.84816 18.3509 4.39811 21.0831C2.94206 23.8266 2.62138 25.661 3.44508 26.5354C3.45146 26.5422 3.45807 26.5488 3.46486 26.5552C4.67037 27.6907 7.44437 26.3839 8.91735 25.6022C11.6497 24.152 15.0863 21.6677 18.8556 18.4178C19.9534 17.4715 20.4219 16.2368 20.2133 14.8869C21.9531 15.0573 23.7878 14.8222 25.0818 14.3666C26.6675 13.8084 27.0003 13.0963 27.0003 12.5971C27.0003 12.1301 26.6998 11.4574 25.268 10.9053ZM22.3063 6.42656C22.9553 6.1484 23.5022 6.09637 23.6997 6.29405C23.8972 6.49149 23.845 7.03839 23.5668 7.68738C22.7932 9.49219 20.6307 11.57 18.9388 12.206C18.7719 12.0013 18.5903 11.8003 18.3957 11.6061C18.1985 11.4086 17.9947 11.2244 17.7872 11.0555C18.4227 9.36506 20.4985 7.20133 22.3063 6.42656ZM16.4752 5.34575C16.7594 4.48104 17.1159 3.93831 17.3965 3.93831C17.528 3.93831 17.8678 4.17409 18.2125 5.0667C18.5116 5.84109 18.7162 6.86541 18.7815 7.9038C17.979 8.75905 17.3553 9.6705 17.0001 10.4984C16.698 10.3157 16.3912 10.1649 16.082 10.0469C15.8415 8.25556 16.0929 6.50925 16.4752 5.34575ZM18.2429 17.7071C14.5257 20.9121 11.149 23.3555 8.47747 24.7733C6.68982 25.7221 5.48966 26.0637 4.78193 26.0636C4.46482 26.0636 4.24642 25.995 4.11859 25.8817C3.7524 25.4686 3.85309 24.1116 5.22697 21.523C6.64472 18.8517 9.08816 15.4748 12.2932 11.7574C13.8403 9.96301 16.0636 10.5982 17.7323 12.2696C19.4176 13.952 20.0245 16.1714 18.2429 17.7071ZM24.7702 13.4816C23.5083 13.9259 21.6591 14.1401 19.951 13.9119C19.8324 13.6023 19.6808 13.2951 19.4971 12.9926C20.325 12.6372 21.236 12.0136 22.0901 11.2118C23.129 11.2771 24.1545 11.4817 24.9305 11.7809C25.8256 12.126 26.0621 12.4658 26.0621 12.5972C26.062 12.7457 25.792 13.1218 24.7702 13.4816Z"/>
</mask>
<path d="M25.268 10.9053C24.6043 10.6495 23.7833 10.4567 22.9239 10.3487C23.5888 9.58917 24.1133 8.79411 24.4293 8.05704C24.886 6.99156 24.8625 6.12979 24.3634 5.63062C23.8642 5.13111 23.0023 5.10748 21.9367 5.56415C21.1995 5.88009 20.4044 6.40458 19.6445 7.06965C19.5366 6.21098 19.3438 5.39108 19.088 4.72868C18.536 3.29991 17.8636 3 17.3965 3C16.8975 3 16.1854 3.33221 15.6271 4.91492C15.1684 6.21548 14.9367 8.05067 15.107 9.78605C13.7596 9.58008 12.5273 10.0489 11.5825 11.1446C8.33253 14.9142 5.84816 18.3509 4.39811 21.0831C2.94206 23.8266 2.62138 25.661 3.44508 26.5354C3.45146 26.5422 3.45807 26.5488 3.46486 26.5552C4.67037 27.6907 7.44437 26.3839 8.91735 25.6022C11.6497 24.152 15.0863 21.6677 18.8556 18.4178C19.9534 17.4715 20.4219 16.2368 20.2133 14.8869C21.9531 15.0573 23.7878 14.8222 25.0818 14.3666C26.6675 13.8084 27.0003 13.0963 27.0003 12.5971C27.0003 12.1301 26.6998 11.4574 25.268 10.9053ZM22.3063 6.42656C22.9553 6.1484 23.5022 6.09637 23.6997 6.29405C23.8972 6.49149 23.845 7.03839 23.5668 7.68738C22.7932 9.49219 20.6307 11.57 18.9388 12.206C18.7719 12.0013 18.5903 11.8003 18.3957 11.6061C18.1985 11.4086 17.9947 11.2244 17.7872 11.0555C18.4227 9.36506 20.4985 7.20133 22.3063 6.42656ZM16.4752 5.34575C16.7594 4.48104 17.1159 3.93831 17.3965 3.93831C17.528 3.93831 17.8678 4.17409 18.2125 5.0667C18.5116 5.84109 18.7162 6.86541 18.7815 7.9038C17.979 8.75905 17.3553 9.6705 17.0001 10.4984C16.698 10.3157 16.3912 10.1649 16.082 10.0469C15.8415 8.25556 16.0929 6.50925 16.4752 5.34575ZM18.2429 17.7071C14.5257 20.9121 11.149 23.3555 8.47747 24.7733C6.68982 25.7221 5.48966 26.0637 4.78193 26.0636C4.46482 26.0636 4.24642 25.995 4.11859 25.8817C3.7524 25.4686 3.85309 24.1116 5.22697 21.523C6.64472 18.8517 9.08816 15.4748 12.2932 11.7574C13.8403 9.96301 16.0636 10.5982 17.7323 12.2696C19.4176 13.952 20.0245 16.1714 18.2429 17.7071ZM24.7702 13.4816C23.5083 13.9259 21.6591 14.1401 19.951 13.9119C19.8324 13.6023 19.6808 13.2951 19.4971 12.9926C20.325 12.6372 21.236 12.0136 22.0901 11.2118C23.129 11.2771 24.1545 11.4817 24.9305 11.7809C25.8256 12.126 26.0621 12.4658 26.0621 12.5972C26.062 12.7457 25.792 13.1218 24.7702 13.4816Z" fill="#D67C49"/>
<path d="M25.268 10.9053C24.6043 10.6495 23.7833 10.4567 22.9239 10.3487C23.5888 9.58917 24.1133 8.79411 24.4293 8.05704C24.886 6.99156 24.8625 6.12979 24.3634 5.63062C23.8642 5.13111 23.0023 5.10748 21.9367 5.56415C21.1995 5.88009 20.4044 6.40458 19.6445 7.06965C19.5366 6.21098 19.3438 5.39108 19.088 4.72868C18.536 3.29991 17.8636 3 17.3965 3C16.8975 3 16.1854 3.33221 15.6271 4.91492C15.1684 6.21548 14.9367 8.05067 15.107 9.78605C13.7596 9.58008 12.5273 10.0489 11.5825 11.1446C8.33253 14.9142 5.84816 18.3509 4.39811 21.0831C2.94206 23.8266 2.62138 25.661 3.44508 26.5354C3.45146 26.5422 3.45807 26.5488 3.46486 26.5552C4.67037 27.6907 7.44437 26.3839 8.91735 25.6022C11.6497 24.152 15.0863 21.6677 18.8556 18.4178C19.9534 17.4715 20.4219 16.2368 20.2133 14.8869C21.9531 15.0573 23.7878 14.8222 25.0818 14.3666C26.6675 13.8084 27.0003 13.0963 27.0003 12.5971C27.0003 12.1301 26.6998 11.4574 25.268 10.9053ZM22.3063 6.42656C22.9553 6.1484 23.5022 6.09637 23.6997 6.29405C23.8972 6.49149 23.845 7.03839 23.5668 7.68738C22.7932 9.49219 20.6307 11.57 18.9388 12.206C18.7719 12.0013 18.5903 11.8003 18.3957 11.6061C18.1985 11.4086 17.9947 11.2244 17.7872 11.0555C18.4227 9.36506 20.4985 7.20133 22.3063 6.42656ZM16.4752 5.34575C16.7594 4.48104 17.1159 3.93831 17.3965 3.93831C17.528 3.93831 17.8678 4.17409 18.2125 5.0667C18.5116 5.84109 18.7162 6.86541 18.7815 7.9038C17.979 8.75905 17.3553 9.6705 17.0001 10.4984C16.698 10.3157 16.3912 10.1649 16.082 10.0469C15.8415 8.25556 16.0929 6.50925 16.4752 5.34575ZM18.2429 17.7071C14.5257 20.9121 11.149 23.3555 8.47747 24.7733C6.68982 25.7221 5.48966 26.0637 4.78193 26.0636C4.46482 26.0636 4.24642 25.995 4.11859 25.8817C3.7524 25.4686 3.85309 24.1116 5.22697 21.523C6.64472 18.8517 9.08816 15.4748 12.2932 11.7574C13.8403 9.96301 16.0636 10.5982 17.7323 12.2696C19.4176 13.952 20.0245 16.1714 18.2429 17.7071ZM24.7702 13.4816C23.5083 13.9259 21.6591 14.1401 19.951 13.9119C19.8324 13.6023 19.6808 13.2951 19.4971 12.9926C20.325 12.6372 21.236 12.0136 22.0901 11.2118C23.129 11.2771 24.1545 11.4817 24.9305 11.7809C25.8256 12.126 26.0621 12.4658 26.0621 12.5972C26.062 12.7457 25.792 13.1218 24.7702 13.4816Z" stroke="#D67C49" stroke-width="0.4" mask="url(#path-2-outside-2)"/>
<mask id="path-3-outside-3" maskUnits="userSpaceOnUse" x="12.9917" y="11.4092" width="4" height="4" fill="black">
<rect fill="white" x="12.9917" y="11.4092" width="4" height="4"/>
<path d="M16.1194 13.8733L14.7926 12.5465C14.6094 12.3634 14.3123 12.3634 14.1291 12.5465C13.9459 12.7297 13.9459 13.0268 14.1291 13.21L15.4559 14.5369C15.6392 14.72 15.9362 14.7201 16.1194 14.5369C16.3026 14.3537 16.3026 14.0566 16.1194 13.8733Z"/>
</mask>
<path d="M16.1194 13.8733L14.7926 12.5465C14.6094 12.3634 14.3123 12.3634 14.1291 12.5465C13.9459 12.7297 13.9459 13.0268 14.1291 13.21L15.4559 14.5369C15.6392 14.72 15.9362 14.7201 16.1194 14.5369C16.3026 14.3537 16.3026 14.0566 16.1194 13.8733Z" fill="#D67C49"/>
<path d="M16.1194 13.8733L14.7926 12.5465C14.6094 12.3634 14.3123 12.3634 14.1291 12.5465C13.9459 12.7297 13.9459 13.0268 14.1291 13.21L15.4559 14.5369C15.6392 14.72 15.9362 14.7201 16.1194 14.5369C16.3026 14.3537 16.3026 14.0566 16.1194 13.8733Z" stroke="#D67C49" stroke-width="0.4" mask="url(#path-3-outside-3)"/>
<mask id="path-4-outside-4" maskUnits="userSpaceOnUse" x="12.3286" y="14.7271" width="4" height="4" fill="black">
<rect fill="white" x="12.3286" y="14.7271" width="4" height="4"/>
<path d="M15.4563 17.1912L14.1295 15.8644C13.9463 15.6813 13.6492 15.6813 13.466 15.8644C13.2828 16.0476 13.2828 16.3447 13.466 16.5279L14.7928 17.8547C14.9761 18.0379 15.2731 18.0379 15.4563 17.8547C15.6395 17.6716 15.6395 17.3745 15.4563 17.1912Z"/>
</mask>
<path d="M15.4563 17.1912L14.1295 15.8644C13.9463 15.6813 13.6492 15.6813 13.466 15.8644C13.2828 16.0476 13.2828 16.3447 13.466 16.5279L14.7928 17.8547C14.9761 18.0379 15.2731 18.0379 15.4563 17.8547C15.6395 17.6716 15.6395 17.3745 15.4563 17.1912Z" fill="#D67C49"/>
<path d="M15.4563 17.1912L14.1295 15.8644C13.9463 15.6813 13.6492 15.6813 13.466 15.8644C13.2828 16.0476 13.2828 16.3447 13.466 16.5279L14.7928 17.8547C14.9761 18.0379 15.2731 18.0379 15.4563 17.8547C15.6395 17.6716 15.6395 17.3745 15.4563 17.1912Z" stroke="#D67C49" stroke-width="0.4" mask="url(#path-4-outside-4)"/>
<mask id="path-5-outside-5" maskUnits="userSpaceOnUse" x="9.01123" y="15.3904" width="4" height="4" fill="black">
<rect fill="white" x="9.01123" y="15.3904" width="4" height="4"/>
<path d="M12.139 17.8546L10.8121 16.5277C10.629 16.3446 10.3319 16.3446 10.1486 16.5277C9.96543 16.7109 9.96543 17.008 10.1486 17.1913L11.4754 18.5181C11.6587 18.7013 11.9557 18.7013 12.139 18.5181C12.3222 18.3349 12.3222 18.0378 12.139 17.8546Z"/>
</mask>
<path d="M12.139 17.8546L10.8121 16.5277C10.629 16.3446 10.3319 16.3446 10.1486 16.5277C9.96543 16.7109 9.96543 17.008 10.1486 17.1913L11.4754 18.5181C11.6587 18.7013 11.9557 18.7013 12.139 18.5181C12.3222 18.3349 12.3222 18.0378 12.139 17.8546Z" fill="#D67C49"/>
<path d="M12.139 17.8546L10.8121 16.5277C10.629 16.3446 10.3319 16.3446 10.1486 16.5277C9.96543 16.7109 9.96543 17.008 10.1486 17.1913L11.4754 18.5181C11.6587 18.7013 11.9557 18.7013 12.139 18.5181C12.3222 18.3349 12.3222 18.0378 12.139 17.8546Z" stroke="#D67C49" stroke-width="0.4" mask="url(#path-5-outside-5)"/>
<mask id="path-6-outside-6" maskUnits="userSpaceOnUse" x="8.34668" y="18.7078" width="4" height="4" fill="black">
<rect fill="white" x="8.34668" y="18.7078" width="4" height="4"/>
<path d="M11.4748 21.1719L10.1475 19.8451C9.96432 19.6619 9.66722 19.662 9.48403 19.8452C9.30083 20.0284 9.30093 20.3255 9.48412 20.5087L10.8114 21.8355C10.9946 22.0187 11.2917 22.0187 11.4749 21.8354C11.6581 21.6522 11.658 21.3551 11.4748 21.1719Z"/>
</mask>
<path d="M11.4748 21.1719L10.1475 19.8451C9.96432 19.6619 9.66722 19.662 9.48403 19.8452C9.30083 20.0284 9.30093 20.3255 9.48412 20.5087L10.8114 21.8355C10.9946 22.0187 11.2917 22.0187 11.4749 21.8354C11.6581 21.6522 11.658 21.3551 11.4748 21.1719Z" fill="#D67C49"/>
<path d="M11.4748 21.1719L10.1475 19.8451C9.96432 19.6619 9.66722 19.662 9.48403 19.8452C9.30083 20.0284 9.30093 20.3255 9.48412 20.5087L10.8114 21.8355C10.9946 22.0187 11.2917 22.0187 11.4749 21.8354C11.6581 21.6522 11.658 21.3551 11.4748 21.1719Z" stroke="#D67C49" stroke-width="0.4" mask="url(#path-6-outside-6)"/>
<mask id="path-7-outside-7" maskUnits="userSpaceOnUse" x="5.69287" y="20.0347" width="4" height="4" fill="black">
<rect fill="white" x="5.69287" y="20.0347" width="4" height="4"/>
<path d="M8.82107 22.4993L7.49379 21.172C7.3106 20.9889 7.0135 20.9889 6.83026 21.172C6.64707 21.3552 6.64707 21.6523 6.83026 21.8355L8.15755 23.1628C8.34078 23.346 8.63784 23.346 8.82107 23.1628C9.00426 22.9796 9.00426 22.6825 8.82107 22.4993Z"/>
</mask>
<path d="M8.82107 22.4993L7.49379 21.172C7.3106 20.9889 7.0135 20.9889 6.83026 21.172C6.64707 21.3552 6.64707 21.6523 6.83026 21.8355L8.15755 23.1628C8.34078 23.346 8.63784 23.346 8.82107 23.1628C9.00426 22.9796 9.00426 22.6825 8.82107 22.4993Z" fill="#D67C49"/>
<path d="M8.82107 22.4993L7.49379 21.172C7.3106 20.9889 7.0135 20.9889 6.83026 21.172C6.64707 21.3552 6.64707 21.6523 6.83026 21.8355L8.15755 23.1628C8.34078 23.346 8.63784 23.346 8.82107 23.1628C9.00426 22.9796 9.00426 22.6825 8.82107 22.4993Z" stroke="#D67C49" stroke-width="0.4" mask="url(#path-7-outside-7)"/>
</svg>
